<?xml version="1.0" standalone="no"?>
<!DOCTYPE svg PUBLIC "-//W3C//DTD SVG 20010904//EN"
 "http://www.w3.org/TR/2001/REC-SVG-20010904/DTD/svg10.dtd">
<svg version="1.0" xmlns="http://www.w3.org/2000/svg"
 width="562.000000pt" height="562.000000pt" viewBox="0 0 562.000000 562.000000"
 preserveAspectRatio="xMidYMid meet">
<metadata>
Created by potrace 1.14, written by Peter Selinger 2001-2017
</metadata>
<g transform="translate(0.000000,562.000000) scale(0.100000,-0.100000)"
fill="#000000" stroke="none">
<path d="M2590 5250 c-41 -11 -86 -20 -100 -20 -22 -1 -23 -2 -5 -9 11 -4 35
-4 55 0 19 5 60 5 90 2 51 -6 53 -7 25 -15 -16 -4 -37 -5 -46 -3 -9 3 -36 1
-60 -4 -24 -6 -45 -6 -47 -2 -3 8 -111 6 -166 -4 -48 -8 -122 -71 -166 -140
-22 -36 -58 -82 -80 -103 -22 -20 -40 -44 -40 -53 0 -8 -16 -38 -35 -65 -19
-27 -35 -56 -35 -65 0 -8 -9 -33 -19 -55 -62 -127 -105 -237 -116 -294 -4 -19
-24 -75 -45 -125 -28 -66 -39 -109 -42 -162 -3 -40 -2 -73 2 -73 14 0 41 -81
56 -168 8 -47 19 -91 23 -96 5 -6 12 -27 16 -46 4 -19 15 -48 25 -65 9 -16 27
-61 39 -100 27 -92 36 -105 45 -68 12 45 68 184 74 179 6 -7 -98 -325 -109
-331 -5 -4 -5 5 1 20 6 15 10 35 10 46 0 16 -4 19 -22 14 -13 -4 -28 -13 -34
-21 -6 -8 -16 -14 -22 -14 -15 0 -173 -172 -170 -185 5 -17 89 -4 111 16 30
28 40 23 22 -11 l-16 -30 40 0 c36 0 44 5 92 63 30 34 64 72 76 84 l23 22 -2
-100 c-1 -64 -6 -106 -14 -117 -8 -9 -14 -20 -14 -24 0 -13 40 -9 71 8 17 8
58 22 92 29 34 8 72 17 85 21 15 4 22 2 22 -7 1 -8 8 -2 16 14 19 35 31 34 32
-3 0 -22 -5 -31 -21 -36 -36 -11 -127 -75 -127 -89 0 -8 -11 -22 -24 -32 -13
-10 -30 -33 -39 -50 -18 -34 -89 -80 -139 -89 -34 -7 -64 -22 -101 -54 -71
-59 -116 -92 -148 -106 -49 -22 -90 -109 -138 -294 -13 -49 -20 -64 -20 -45
-1 50 44 213 76 275 20 38 17 53 -9 46 -13 -4 -45 -12 -73 -18 -27 -7 -70 -27
-94 -45 -24 -18 -56 -33 -71 -33 -15 0 -36 -10 -50 -25 -12 -13 -37 -29 -55
-35 -46 -15 -210 -185 -236 -246 -12 -27 -37 -67 -55 -89 -18 -22 -51 -87 -74
-145 -86 -213 -100 -278 -110 -508 -5 -106 -12 -196 -14 -201 -8 -12 12 -150
31 -213 14 -51 15 -78 5 -239 -6 -99 -16 -187 -22 -193 -5 -7 -11 -39 -13 -71
-2 -33 -9 -61 -15 -63 -7 -2 -12 -10 -12 -18 0 -16 -35 -128 -50 -159 -27 -56
-50 -144 -50 -194 0 -58 -13 -153 -25 -183 -7 -17 5 -18 166 -18 l174 0 37 49
c20 28 29 47 21 44 -13 -5 -13 -3 -4 16 10 18 9 22 -11 30 -13 5 -30 5 -40 0
-22 -12 -105 8 -128 31 -16 16 -14 17 27 29 24 7 43 18 43 23 0 8 -11 7 -60
-10 -13 -4 -13 -3 0 11 8 8 25 18 38 22 18 5 25 2 29 -13 5 -20 6 -19 35 6 16
15 55 63 85 107 64 92 102 135 119 135 6 0 14 7 17 14 3 8 21 18 40 21 27 5
36 13 40 31 2 13 0 24 -4 24 -5 0 -9 -4 -9 -10 0 -5 -7 -10 -15 -10 -8 0 -12
6 -9 14 4 10 -2 12 -23 9 -27 -4 -27 -4 -9 11 11 9 26 16 33 16 7 0 13 6 13
14 0 8 7 17 16 20 8 3 12 11 8 17 -7 12 -80 5 -99 -10 -5 -5 -22 -11 -37 -13
-25 -5 -28 -2 -28 23 0 27 2 28 48 27 76 -2 126 2 140 11 9 5 15 35 18 81 3
39 6 77 7 83 2 14 -4 14 -55 3 -47 -10 -50 -24 -5 -19 29 3 30 2 8 -7 -13 -6
-35 -10 -50 -9 -14 1 -34 -2 -43 -6 -10 -4 -18 -3 -18 3 0 15 93 61 139 68 36
6 41 4 41 -12 0 -35 42 -248 67 -339 13 -49 30 -109 36 -133 6 -23 15 -42 20
-42 4 0 6 -4 3 -8 -2 -4 1 -33 9 -63 l13 -54 -5 75 c-4 41 -10 76 -15 78 -4 2
-8 31 -8 65 0 34 -5 89 -10 122 -6 33 -14 96 -20 140 -5 44 -21 154 -35 245
-14 91 -25 180 -25 198 0 18 -3 31 -7 29 -15 -9 -6 276 10 358 24 118 43 197
55 225 10 24 11 23 11 -13 1 -21 -3 -46 -9 -56 -5 -10 -12 -61 -15 -112 -3
-61 -1 -87 4 -73 5 12 11 56 12 99 2 42 7 79 11 81 4 3 8 27 8 53 0 27 14 104
30 172 37 150 89 353 101 394 4 17 20 80 35 140 31 129 46 170 37 105 -3 -25
-35 -162 -70 -305 -36 -143 -74 -298 -84 -345 -19 -83 -57 -366 -60 -445 -1
-35 -2 -37 -9 -15 -6 17 -8 -2 -7 -55 2 -67 5 -80 20 -83 15 -3 17 4 16 55 -1
33 1 68 4 79 12 37 18 80 23 164 10 163 50 349 169 775 57 207 111 345 135
345 6 0 11 8 11 18 1 9 5 -1 10 -23 11 -56 10 -231 -2 -285 -14 -62 -22 -194
-9 -160 8 20 9 17 4 -14 -3 -22 -7 -74 -10 -115 -5 -89 -12 -131 -24 -131 -5
0 -11 -10 -13 -22 -4 -20 -4 -20 -6 4 0 14 4 28 11 30 8 3 12 59 13 189 1 106
7 194 13 205 11 21 15 77 12 194 l-2 75 -28 -60 c-34 -72 -56 -136 -65 -190
-7 -41 -21 -93 -36 -132 -5 -13 -5 -23 -1 -23 4 0 5 -22 4 -50 -4 -55 10 -67
26 -22 l10 27 1 -27 c1 -15 -3 -29 -8 -33 -6 -3 -8 -20 -6 -37 2 -17 0 -39 -6
-49 -7 -15 -6 -17 6 -13 8 4 15 2 15 -4 0 -5 -13 -12 -29 -15 -33 -7 -86 -51
-77 -65 3 -5 -1 -45 -10 -88 -14 -73 -25 -150 -39 -279 -5 -48 -4 -47 14 20
11 39 20 86 20 106 1 20 4 39 9 43 4 4 12 39 17 78 6 40 15 73 23 76 6 2 12
-3 12 -12 0 -9 -4 -16 -9 -16 -5 0 -8 -6 -7 -12 2 -25 -25 -194 -39 -238 -16
-51 -48 -241 -41 -247 2 -2 11 20 21 49 9 29 20 62 25 73 5 11 12 34 15 52 3
17 12 34 19 36 11 4 12 -1 5 -21 -48 -154 -74 -229 -82 -239 -10 -14 -53 -164
-68 -238 -31 -154 -32 -202 -5 -420 27 -215 32 -284 41 -485 8 -196 14 -240
36 -240 12 0 21 10 25 26 8 32 36 28 44 -6 6 -23 7 -22 12 10 7 46 -3 189 -13
196 -5 3 -9 40 -9 83 0 58 4 82 15 91 13 11 13 14 -2 26 -17 12 -17 13 3 14
15 0 24 -8 28 -25 9 -35 17 -179 18 -307 l1 -108 60 0 59 0 -7 150 c-6 114 -4
154 5 165 10 12 9 15 -4 15 -25 0 -33 50 -11 67 35 25 45 16 45 -39 1 -29 7
-82 15 -118 8 -36 18 -104 21 -153 5 -66 10 -87 22 -87 9 0 12 6 8 17 -4 10
-9 75 -12 146 l-6 129 24 -7 c13 -4 24 -9 26 -10 2 -2 10 -52 17 -112 16 -133
24 -165 38 -160 14 4 11 68 -10 212 -9 62 -13 141 -10 180 2 39 1 79 -4 90 -7
19 -8 19 -8 -2 -1 -35 -21 -27 -21 7 0 25 4 30 25 30 22 0 25 -4 25 -33 0 -19
3 -37 7 -41 18 -18 44 -153 63 -321 12 -108 17 -125 36 -125 16 0 17 18 4 115
-6 39 -14 102 -19 140 -5 39 -12 79 -16 90 -6 16 -5 17 4 5 9 -12 11 -11 11 8
0 13 -4 21 -8 18 -13 -8 -40 64 -42 109 -1 22 -1 94 1 160 2 107 3 113 8 50 3
-38 6 -111 6 -162 0 -50 3 -89 8 -86 4 2 10 -10 13 -27 10 -47 17 -27 17 42
l-1 63 9 -70 c5 -38 13 -79 19 -90 9 -20 37 -156 60 -292 8 -51 16 -73 26 -73
16 0 17 25 4 125 -5 39 -10 94 -11 123 -2 47 -5 52 -26 52 -13 0 -26 7 -30 15
-8 22 6 33 17 15 7 -10 10 12 10 65 0 55 -3 75 -10 65 -7 -11 -10 -6 -10 20 0
19 -3 45 -6 57 -5 19 -2 23 15 23 31 0 25 20 -6 21 -25 0 -26 1 -8 9 11 5 25
9 30 9 15 1 32 -46 49 -137 9 -46 18 -88 21 -92 6 -9 18 -95 35 -240 13 -113
18 -130 35 -130 20 0 19 52 -6 220 -11 74 -24 163 -29 198 -5 35 -14 80 -20
100 -5 20 -10 54 -10 76 0 31 3 37 16 32 12 -4 15 0 12 17 -2 16 -10 22 -28
22 -23 0 -25 4 -27 45 -1 25 1 37 3 28 3 -9 15 -20 26 -24 16 -5 18 -8 7 -15
-11 -7 -10 -9 5 -9 16 0 18 5 13 35 -6 38 8 58 16 22 7 -31 65 -340 77 -412 5
-33 15 -107 20 -165 17 -163 18 -170 46 -170 22 0 24 3 19 37 -3 21 -12 106
-21 188 -8 83 -19 173 -23 200 -5 28 -14 88 -21 135 -6 47 -14 92 -17 100 -19
47 -73 402 -73 482 0 41 -2 46 -20 41 -24 -6 -25 -12 -6 -39 10 -13 11 -25 5
-35 -7 -11 -9 -9 -9 8 0 12 -4 24 -9 27 -5 3 -7 -48 -4 -119 l5 -125 -25 0
c-42 0 -54 -9 -49 -36 5 -29 32 -33 32 -4 0 13 7 20 19 20 14 0 22 -12 30 -46
7 -26 9 -49 6 -52 -3 -3 -5 2 -5 11 0 21 -38 43 -52 29 -16 -16 -57 6 -51 28
3 10 -1 44 -7 76 -17 82 -20 108 -18 199 0 44 0 278 -1 520 -1 398 -3 447 -20
515 l-19 75 -1 -65 c0 -45 2 -60 9 -50 8 12 10 10 10 -8 0 -14 -4 -21 -11 -16
-8 4 -7 0 1 -15 6 -12 9 -27 7 -34 -2 -7 0 -22 4 -34 5 -12 5 -24 1 -27 -17
-10 -22 -818 -7 -1053 7 -99 6 -103 -13 -103 -12 0 -24 -4 -27 -10 -3 -5 -12
-10 -19 -10 -22 0 -50 249 -42 367 4 54 9 135 12 179 5 64 3 84 -9 95 -10 9
-13 27 -9 56 3 28 1 43 -7 43 -6 0 -11 -15 -12 -32 0 -18 -2 -52 -3 -75 -2
-24 0 -43 4 -43 5 0 6 -9 3 -20 -4 -14 0 -20 11 -20 9 0 16 -4 16 -10 0 -5 -6
-7 -14 -4 -18 7 -25 -17 -25 -86 0 -30 -5 -70 -10 -88 -6 -18 -9 -87 -7 -152
2 -114 2 -119 -18 -122 -12 -2 -21 -10 -22 -18 -7 -101 -7 -102 -15 -15 -4 50
-9 138 -10 197 -3 111 -8 133 -29 126 -7 -2 -52 15 -99 39 -77 39 -87 42 -92
26 -14 -38 -28 -101 -39 -178 -10 -76 -46 -175 -63 -175 -4 0 0 15 9 33 10 17
19 46 20 62 12 120 51 273 103 408 26 67 60 158 76 202 15 44 34 92 42 107 7
15 12 29 11 31 -2 2 5 15 15 30 31 47 132 411 149 532 6 44 14 90 19 103 9 24
29 30 29 9 0 -46 61 -113 175 -192 39 -27 76 -55 83 -62 7 -7 20 -13 28 -13 9
0 14 -11 14 -32 0 -18 7 -76 15 -128 8 -52 17 -192 20 -310 14 -545 25 -690
79 -1030 14 -85 32 -218 41 -295 9 -77 21 -170 26 -207 5 -37 9 -85 9 -107 0
-34 3 -41 19 -41 11 0 23 5 26 10 3 6 -2 10 -12 10 -12 0 -14 3 -6 8 14 9 3
264 -17 387 -40 248 -52 326 -70 455 -11 80 -23 193 -26 253 -5 90 -8 107 -22
107 -11 0 -13 3 -6 8 6 4 11 22 12 41 1 30 0 32 -13 15 -12 -16 -14 -16 -15
-4 0 9 5 21 12 28 14 14 12 388 -3 517 -9 83 -11 249 -2 228 6 -16 53 -17 53
-1 0 6 2 9 5 6 8 -8 34 -174 40 -263 3 -44 8 -100 11 -125 2 -25 4 -59 4 -77
0 -26 3 -30 19 -26 19 5 20 12 16 142 -6 192 -18 352 -29 370 -4 5 -37 8 -75
6 -51 -2 -71 0 -75 10 -7 20 0 22 56 14 81 -11 221 -5 226 11 3 7 13 19 23 28
10 9 16 19 13 24 -6 9 53 13 114 9 14 -1 14 -3 3 -10 -8 -5 -11 -16 -8 -24 3
-9 1 -17 -5 -19 -7 -3 -8 -10 -4 -17 5 -7 15 -10 23 -7 8 3 11 1 8 -4 -3 -6
-20 -10 -37 -10 -22 0 -29 -4 -25 -14 4 -10 -6 -17 -31 -24 l-37 -10 38 -1
c20 -1 37 -2 37 -3 1 -2 3 -39 6 -83 6 -92 10 -109 24 -100 5 3 10 1 10 -4 0
-6 -5 -11 -10 -11 -14 0 -2 -231 12 -245 7 -7 8 -2 3 13 -4 13 -2 22 4 22 6 0
11 -16 11 -36 0 -21 -4 -33 -10 -29 -5 3 -10 0 -10 -7 1 -19 27 -279 45 -443
9 -77 20 -185 25 -240 5 -55 14 -143 19 -195 5 -52 13 -156 16 -230 3 -74 10
-184 16 -245 5 -60 9 -134 9 -162 0 -50 2 -53 25 -53 24 0 24 1 20 73 -2 39
-5 107 -6 150 -1 43 -5 79 -8 81 -3 3 -8 80 -9 173 -3 158 -22 387 -57 673 -9
69 -20 177 -26 240 -5 63 -13 117 -17 120 -4 3 -8 30 -10 60 -3 80 -12 130
-23 130 -6 0 -6 8 1 19 13 26 13 31 -3 25 -8 -3 -13 3 -13 15 0 11 4 17 9 14
4 -3 5 39 2 94 -7 124 2 223 21 223 8 0 14 -5 14 -11 0 -5 -4 -7 -10 -4 -5 3
-10 3 -10 -2 0 -15 15 -28 35 -31 11 -2 23 -9 26 -14 4 -6 12 -67 18 -137 17
-180 38 -359 66 -566 43 -316 55 -442 66 -694 10 -239 15 -321 18 -331 1 -3 2
-71 1 -152 l-1 -148 32 0 32 0 -7 47 c-3 27 -8 178 -11 338 -3 160 -10 340
-16 400 -9 99 -42 386 -54 475 -3 19 -12 89 -20 155 -9 66 -20 147 -25 180 -6
33 -15 136 -20 230 -11 186 -6 208 44 217 22 5 26 2 27 -21 0 -14 2 -35 4 -46
1 -11 10 -90 19 -175 20 -190 56 -442 64 -455 3 -5 7 -28 9 -50 2 -22 8 -67
13 -100 18 -111 39 -289 46 -390 5 -64 10 -93 15 -80 5 14 8 15 8 5 1 -9 -5
-22 -11 -28 -10 -10 -10 -15 2 -22 9 -6 16 -6 18 0 2 6 8 8 13 4 5 -3 9 1 9
10 0 8 -6 17 -12 19 -10 4 -10 6 0 6 10 1 12 26 7 119 -6 111 -30 310 -42 342
-3 8 -7 26 -9 40 -3 27 -29 174 -44 255 -15 75 -49 469 -50 572 0 46 19 73 52
73 16 0 18 -3 9 -14 -7 -9 -8 -17 -3 -20 6 -3 15 -45 21 -93 7 -49 18 -135 26
-193 8 -58 19 -150 25 -205 7 -55 23 -152 37 -215 49 -222 83 -442 83 -543 0
-36 3 -47 10 -37 18 28 32 -39 25 -120 -8 -95 -24 -200 -32 -214 -4 -5 -7 -46
-8 -90 -2 -45 0 -64 2 -43 3 24 8 35 15 31 6 -4 9 -3 6 2 -3 5 3 56 14 114 26
137 27 386 4 560 -18 130 -19 139 -60 310 -26 110 -41 200 -56 335 -5 44 -13
121 -19 171 -22 184 -15 364 14 364 21 0 33 -50 55 -233 12 -95 28 -219 36
-277 8 -58 19 -132 24 -165 7 -56 50 -241 70 -310 48 -160 66 -454 35 -579
-27 -110 -35 -224 -29 -419 6 -222 8 -237 32 -237 16 0 17 18 18 213 2 225 7
338 19 357 4 6 9 37 10 68 5 78 7 83 14 37 3 -22 3 -62 -1 -90 -24 -158 -11
-209 17 -67 33 168 34 177 24 180 -5 2 -9 8 -9 13 0 4 6 6 14 3 8 -3 16 4 20
18 10 39 7 48 -19 48 -14 0 -26 -6 -27 -12 -1 -15 -13 72 -27 212 -15 144 -82
463 -102 485 -5 5 -9 20 -9 35 0 14 -6 57 -15 95 -30 144 -81 694 -66 722 3 6
26 33 51 60 25 26 58 77 74 113 16 36 38 85 49 110 l21 45 22 -75 c12 -41 41
-145 63 -230 23 -85 95 -317 161 -515 65 -198 123 -379 130 -402 6 -23 18 -49
26 -58 9 -8 13 -22 10 -30 -3 -8 -1 -15 4 -15 11 0 14 43 3 54 -8 7 -12 20
-89 241 -130 376 -174 515 -209 655 -13 52 -27 103 -30 113 -5 12 -2 17 9 17
13 0 15 -6 10 -26 -5 -18 -3 -25 3 -21 12 8 23 -14 23 -45 0 -17 48 -90 71
-108 3 -3 9 -22 13 -43 4 -21 11 -35 17 -32 18 11 69 -156 99 -325 11 -63 31
-149 44 -190 44 -136 56 -186 56 -224 0 -20 4 -35 9 -32 15 10 30 -43 36 -126
5 -89 -3 -80 -25 25 -11 54 -29 73 -45 47 -3 -5 0 -10 9 -10 20 0 34 -50 42
-155 6 -95 2 -116 -56 -265 -43 -109 -42 -109 -31 -141 14 -41 14 -45 -4 -63
-12 -11 -13 -21 -6 -33 5 -10 19 -78 31 -152 27 -163 59 -270 94 -311 31 -38
49 -101 41 -143 -4 -22 -3 -27 3 -18 8 11 10 11 14 0 3 -8 8 -12 11 -9 3 3 -6
45 -20 95 -14 50 -29 113 -35 140 -8 43 -14 68 -18 78 -32 74 -50 418 -30 570
14 106 33 171 25 87 -7 -73 -14 -236 -8 -185 2 22 9 45 15 52 6 8 9 117 9 295
-1 283 -2 315 -12 333 -3 6 -7 30 -7 55 -3 58 -23 233 -28 242 -7 11 -5 415 2
442 3 14 11 26 17 26 7 0 8 -41 5 -123 -2 -67 -3 -107 -1 -89 3 17 9 32 14 32
6 0 8 -9 4 -19 -3 -11 1 -100 10 -198 9 -98 20 -214 23 -258 17 -196 -5 -804
-28 -790 -17 10 -19 -109 -5 -212 28 -193 46 -276 96 -422 27 -79 49 -145 49
-147 0 -2 47 -4 105 -4 l105 0 1 248 c1 136 1 251 0 255 -1 5 -2 115 -3 245
-1 130 -3 218 -5 195 -2 -24 -8 -43 -12 -43 -5 0 -7 15 -5 32 1 18 3 60 4 93
0 44 3 56 10 45 7 -10 10 11 8 73 -1 53 -6 87 -12 87 -7 0 -6 3 1 8 14 9 9
145 -6 150 -13 4 -24 -15 -16 -29 11 -16 7 -278 -4 -297 -8 -12 -11 6 -12 68
0 47 -2 119 -4 160 -4 77 -1 96 33 215 11 39 28 106 37 150 9 44 22 91 28 104
8 16 12 88 10 225 -1 227 12 245 26 34 7 -97 5 -172 -5 -273 -17 -176 -25
-306 -18 -280 3 11 10 24 15 30 5 5 9 41 9 80 1 42 6 80 15 95 9 16 15 58 16
120 0 72 3 88 10 65 13 -45 18 -267 9 -395 -5 -63 -8 -115 -7 -117 2 -1 18 66
37 148 25 106 36 141 38 117 3 -37 -69 -344 -92 -386 -8 -15 -22 -47 -31 -72
-9 -25 -21 -53 -26 -63 -14 -26 -33 -220 -25 -252 l7 -27 27 39 c15 22 51 75
79 118 48 71 80 150 99 243 4 17 10 30 14 27 8 -5 -2 -74 -14 -93 -4 -7 -2
-12 4 -12 6 0 9 -4 6 -8 -3 -5 -7 -19 -10 -33 -2 -13 -11 -46 -20 -72 -14 -46
-13 -48 2 -34 9 8 38 24 64 35 l47 21 31 -29 c18 -16 29 -34 25 -39 -3 -6 -52
-36 -108 -68 -56 -31 -104 -60 -107 -63 -3 -3 -18 -11 -35 -18 -16 -7 -47 -21
-68 -30 l-38 -17 7 -55 c3 -30 9 -89 13 -130 l6 -75 74 3 c57 2 72 0 69 -10
-3 -7 -15 -14 -29 -16 -13 -2 -43 -12 -65 -22 -36 -16 -41 -22 -37 -44 3 -15
7 -26 9 -26 8 0 74 49 105 78 23 21 53 36 94 46 33 8 51 15 41 15 -19 1 -19 1
-1 14 29 22 7 26 -129 29 -144 3 -153 11 -76 63 42 28 52 30 158 34 74 2 112
0 112 -7 0 -6 -19 -13 -42 -15 l-43 -4 43 -1 c40 -2 43 -4 37 -24 -4 -13 -13
-33 -21 -45 -8 -12 -14 -30 -14 -40 1 -11 8 -5 20 17 22 42 52 179 42 194 -7
11 -14 210 -11 306 1 30 2 75 2 100 0 64 -29 284 -48 355 -9 33 -19 71 -22 85
-3 14 -9 30 -13 35 -4 6 -22 62 -39 125 -67 243 -132 389 -208 467 -24 24 -43
48 -43 55 0 6 -16 44 -35 85 -19 41 -35 77 -35 81 0 12 -104 112 -117 112 -6
0 -38 20 -71 45 -33 25 -62 45 -66 45 -3 0 -28 14 -54 30 -27 17 -59 30 -70
30 -12 0 -37 13 -55 30 -25 21 -55 34 -107 45 -76 16 -122 39 -156 76 -10 12
-48 40 -83 62 -43 27 -68 51 -77 73 -8 18 -26 41 -40 51 -15 10 -38 28 -52 41
-14 14 -32 22 -43 19 -12 -3 -19 0 -19 9 0 15 -16 19 -22 6 -1 -5 -16 -12 -31
-16 -27 -6 -27 -6 -16 16 6 13 20 35 30 50 24 33 24 46 1 25 -9 -8 -29 -20
-43 -26 -54 -20 -15 -92 102 -188 38 -32 72 -67 75 -79 3 -12 -3 -60 -15 -106
-11 -45 -26 -114 -32 -153 -10 -63 -30 -106 -66 -143 -7 -7 -20 -26 -29 -42
-13 -20 -51 -45 -138 -88 -67 -33 -139 -65 -161 -72 -22 -7 -44 -16 -50 -19
-5 -4 -35 -13 -65 -20 -30 -8 -60 -18 -67 -23 -16 -13 -327 -11 -331 2 -2 5
-32 10 -67 10 -51 0 -69 4 -92 23 -44 36 -78 55 -114 64 -28 8 -35 15 -45 53
-7 25 -19 68 -27 95 -55 184 -56 196 -12 326 18 53 37 84 81 132 31 34 68 79
82 100 40 60 37 35 -5 -45 -33 -61 -39 -80 -35 -117 3 -29 7 -39 13 -30 6 10
10 5 15 -19 4 -18 11 -35 15 -38 5 -3 9 -10 9 -16 0 -6 -9 -3 -20 7 -28 25
-25 12 4 -19 16 -18 22 -34 18 -51 -2 -14 -7 -23 -11 -21 -4 3 -7 -11 -7 -30
0 -19 1 -34 3 -34 14 0 88 334 85 384 l-2 30 33 -39 c17 -22 42 -51 55 -65 22
-23 23 -24 12 -2 -9 18 -8 26 4 37 16 16 76 21 76 6 0 -5 9 -13 20 -16 11 -4
37 -22 57 -40 21 -19 39 -33 40 -31 2 2 9 32 16 67 13 63 14 64 63 88 31 15
69 25 104 26 31 1 69 9 85 17 17 9 47 24 67 32 27 12 50 35 81 84 24 37 61 84
82 105 21 20 35 37 31 37 -9 0 -120 -74 -171 -115 -22 -18 -65 -45 -95 -60
-49 -25 -65 -28 -140 -26 -79 2 -88 4 -135 37 -103 72 -161 115 -185 137 -14
13 -40 34 -58 46 -18 12 -29 27 -26 33 4 7 2 8 -4 4 -7 -4 -12 -3 -12 2 0 5
-18 30 -40 55 -35 40 -40 51 -40 96 0 32 -7 63 -20 86 -11 19 -20 37 -20 40 0
18 -14 55 -20 55 -5 0 -10 10 -12 22 -2 14 -12 24 -28 28 -23 5 -25 11 -27 60
-1 30 -7 56 -12 58 -6 2 -8 8 -5 13 3 6 2 15 -3 22 -5 7 -9 27 -9 45 1 17 -2
32 -6 32 -4 0 -3 12 3 27 5 14 8 36 7 47 -3 19 2 21 41 20 29 -1 46 -6 53 -17
6 -11 22 -17 46 -17 48 0 83 -10 76 -21 -3 -5 5 -9 18 -9 18 0 20 2 8 10 -12
8 -11 10 7 10 12 0 25 5 28 10 3 6 0 10 -8 10 -24 0 -75 30 -82 48 -7 15 -8
15 -15 -3 -7 -16 -9 -17 -9 -3 -1 26 -30 48 -62 48 -39 0 -39 27 0 64 53 51
170 62 219 21 18 -15 42 -25 62 -25 32 0 65 -13 87 -36 25 -25 12 -24 -32 1
-51 28 -55 29 -55 16 0 -5 8 -12 18 -15 10 -4 35 -22 56 -41 32 -29 37 -39 32
-62 -6 -27 -6 -27 9 -9 13 17 15 18 15 3 0 -9 5 -17 10 -17 6 0 10 -5 10 -11
0 -5 -4 -7 -10 -4 -6 3 -11 -6 -12 -22 -4 -71 -6 -85 -16 -106 -6 -12 -22 -51
-36 -87 -13 -36 -27 -74 -32 -84 -5 -13 -4 -17 3 -13 6 4 17 0 24 -9 7 -8 30
-24 52 -35 35 -16 43 -17 56 -5 9 8 25 16 35 17 30 6 29 23 -3 37 -57 25 -77
136 -41 227 24 61 8 181 -29 227 -91 113 -128 132 -255 129 -98 -2 -171 -27
-215 -75 -13 -14 -28 -23 -34 -19 -6 3 -7 1 -3 -5 7 -11 -11 -28 -21 -19 -9
10 8 48 19 41 6 -4 8 3 6 17 -1 12 -9 25 -17 27 -10 3 -12 0 -7 -14 4 -10 3
-15 -1 -10 -4 4 -14 -19 -21 -51 -18 -87 -21 -95 -28 -102 -4 -3 -4 10 0 29 4
19 11 67 16 107 11 81 48 196 84 257 40 69 217 226 253 226 5 0 26 9 48 21 27
15 70 24 141 30 105 9 117 12 194 47 25 11 68 25 97 32 29 7 54 18 57 27 7 18
-22 56 -35 47 -5 -3 -9 4 -9 15 0 44 33 37 70 -14 14 -19 32 -37 40 -40 8 -3
29 -18 45 -35 48 -48 142 -120 157 -120 8 0 24 -11 35 -24 11 -13 27 -26 34
-28 8 -3 11 -8 7 -12 -3 -4 -16 -2 -29 4 -20 11 -21 11 -15 -11 4 -13 9 -37
11 -54 6 -50 32 -158 34 -142 1 4 12 -4 25 -19 l23 -28 -3 35 c-4 32 -3 32 5
7 5 -15 23 -55 40 -89 17 -34 31 -71 31 -81 0 -26 38 -106 71 -148 14 -19 39
-57 54 -85 15 -27 37 -60 48 -72 17 -19 18 -23 4 -23 -19 0 -172 168 -182 201
-4 13 -16 36 -26 51 -11 14 -19 34 -19 43 0 9 -4 14 -9 11 -5 -4 -14 6 -19 21
-19 52 -12 -1 13 -100 14 -54 26 -128 27 -165 1 -54 2 -58 5 -21 3 36 9 48 23
52 10 3 21 2 24 -1 12 -12 5 -62 -19 -130 -14 -39 -25 -85 -25 -102 0 -27 -3
-30 -32 -31 l-33 -1 30 -7 30 -7 -30 -19 c-16 -10 -31 -20 -32 -20 -2 -1 -5
-39 -8 -85 -6 -95 -28 -162 -79 -249 -33 -56 -36 -69 -36 -136 0 -41 -4 -77
-10 -80 -9 -5 -15 16 -11 38 1 5 -3 6 -9 2 -5 -3 -10 -13 -10 -22 0 -8 -12
-36 -27 -62 -27 -50 -27 -86 2 -75 9 4 35 36 59 73 24 36 60 84 80 106 64 70
122 148 149 200 30 58 63 213 73 335 3 47 13 96 21 109 9 14 13 39 11 62 -5
52 8 50 16 -2 4 -23 13 -51 21 -62 16 -23 21 -7 6 21 -4 9 -11 30 -15 47 -7
29 -7 29 12 12 11 -10 30 -40 43 -67 13 -27 26 -47 30 -44 4 2 12 -9 18 -24
21 -53 30 -132 26 -234 l-5 -103 20 75 c39 149 54 335 31 380 -8 14 -27 40
-44 58 -17 17 -26 32 -19 32 7 0 12 -4 12 -10 0 -5 6 -10 14 -10 27 0 36 123
10 138 -9 5 -14 11 -12 15 5 10 -56 107 -68 107 -6 0 -19 15 -28 33 -13 27
-16 28 -16 10 0 -34 21 -125 36 -155 8 -15 28 -44 45 -63 17 -19 27 -35 22
-35 -6 0 -54 47 -109 105 -123 131 -124 131 -124 147 0 8 -14 49 -30 92 -17
43 -28 81 -26 84 3 3 10 -8 16 -24 5 -16 15 -39 22 -50 61 -102 81 -133 103
-159 l26 -30 -6 109 c-4 60 -11 120 -16 133 -5 13 -9 38 -9 54 0 18 -6 32 -16
36 -10 4 -13 13 -9 32 7 33 -30 76 -44 52 -6 -8 -11 14 -16 58 -6 62 -10 74
-30 81 -12 4 -28 22 -35 40 -17 41 -83 98 -164 139 -51 27 -69 32 -78 23 -9
-9 -8 -12 4 -12 22 0 212 -190 227 -229 8 -17 17 -31 22 -31 13 0 49 -38 49
-51 0 -5 -5 -7 -12 -3 -7 5 -9 2 -5 -9 3 -8 9 -33 13 -54 7 -35 8 -36 15 -13
l7 25 1 -25 c0 -14 -3 -32 -8 -39 -11 -17 -15 -9 -51 94 -15 43 -32 69 -56 88
-20 17 -34 23 -34 15 0 -7 -9 -2 -20 12 -16 21 -20 22 -20 7 0 -10 7 -29 16
-42 10 -15 12 -25 6 -25 -13 0 -28 26 -33 55 -5 24 -87 98 -139 125 -21 11
-56 20 -76 20 -31 0 -35 2 -24 15 8 10 30 15 62 15 53 0 64 19 17 30 l-24 6
23 6 c31 8 28 30 -3 23 -14 -3 -35 -7 -48 -10 -12 -2 -29 0 -37 5 -13 8 -12
11 4 23 20 14 20 15 1 43 -11 16 -18 33 -17 38 2 5 -4 4 -12 -4 -14 -11 -20
-8 -18 11 0 3 -20 13 -45 22 -44 17 -46 16 -31 0 9 -10 19 -29 22 -43 4 -14 4
-20 -1 -14 -29 38 -56 44 -168 39 -110 -5 -110 -5 -65 11 25 9 78 18 118 21
l73 6 -29 18 c-17 9 -32 21 -35 26 -4 6 -29 6 -59 2 -70 -10 -143 -11 -134 -1
4 4 26 12 49 19 75 20 -8 14 -93 -7z m145 -119 c-30 -29 -138 -59 -250 -70
-100 -10 -132 -18 -190 -46 -38 -18 -82 -46 -96 -62 -33 -37 -94 -142 -149
-256 -24 -48 -47 -90 -51 -93 -12 -7 -3 16 43 116 108 233 127 257 248 329 78
47 131 70 185 81 56 11 271 12 260 1z m169 -56 c16 -25 16 -25 -11 -25 -16 0
-45 -5 -66 -11 -53 -14 -70 -5 -24 15 23 10 47 14 64 10 17 -5 24 -3 19 4 -4
7 -46 9 -119 7 -100 -4 -109 -3 -82 9 17 8 67 14 116 15 82 0 88 -1 103 -24z
m77 -18 c6 -10 7 -23 2 -28 -4 -4 -16 10 -25 33 -14 33 -15 38 -2 27 8 -7 20
-21 25 -32z m-281 -13 c-36 -7 -75 -13 -87 -14 -13 0 -23 -5 -23 -11 0 -8 16
-9 53 -4 94 14 217 13 217 -3 0 -7 -8 -12 -17 -11 -49 4 -93 -3 -108 -18 -12
-12 -38 -17 -89 -19 -81 -3 -134 -12 -142 -25 -3 -5 -16 -9 -29 -9 -33 0 -74
-19 -109 -49 -16 -14 -26 -19 -22 -11 4 8 1 6 -6 -4 -7 -11 -34 -47 -59 -80
-25 -34 -105 -151 -178 -261 -145 -218 -152 -227 -158 -221 -2 2 24 58 58 125
41 80 94 161 155 239 51 64 103 130 116 147 13 16 17 26 11 22 -7 -5 -13 -6
-13 -2 0 3 11 10 25 15 14 5 25 14 25 20 0 6 -5 8 -12 4 -6 -4 -8 -3 -5 3 8
13 47 24 47 13 0 -4 14 5 30 20 43 40 106 67 174 76 33 4 53 10 46 14 -7 4
-27 4 -44 -1 -49 -14 -54 -9 -11 12 22 10 36 19 30 19 -5 1 4 7 20 15 17 7 61
13 100 13 l70 0 -65 -14z m199 -63 c9 -6 0 -10 -30 -14 -54 -6 -121 -25 -95
-26 11 -1 17 -3 14 -6 -5 -6 -35 -11 -118 -20 l-45 -5 50 20 c28 11 59 25 70
32 45 26 127 36 154 19z m-165 -80 c7 -11 -29 -20 -111 -26 -36 -3 -63 -1 -63
5 0 8 34 15 120 23 19 2 38 5 42 5 4 1 9 -2 12 -7z m-10 -40 c5 -8 -88 -31
-127 -31 -31 0 -16 8 44 24 65 18 76 19 83 7z m664 -146 c-3 -3 -9 2 -12 12
-6 14 -5 15 5 6 7 -7 10 -15 7 -18z m-56 -27 c24 -21 68 -84 68 -99 0 -9 -5
-6 -12 6 -6 11 -29 39 -51 63 -38 39 -41 59 -5 30z m174 -65 c-6 -26 -12 -38
-14 -27 -3 19 13 74 21 74 2 0 -1 -21 -7 -47z m-29 -65 c-3 -8 -6 -5 -6 6 -1
11 2 17 5 13 3 -3 4 -12 1 -19z m-1538 -104 c-24 -47 -45 -81 -47 -75 -2 5 16
49 39 97 24 47 45 81 47 75 2 -5 -16 -49 -39 -97z m466 -129 c-25 -9 -107 -12
-94 -4 8 5 34 8 59 8 25 0 41 -2 35 -4z m-438 -147 c32 -30 31 -54 -2 -32 -13
8 -29 13 -34 10 -15 -10 -24 13 -11 29 16 19 19 19 47 -7z m-37 -53 c0 -9 7
-30 16 -46 8 -17 13 -33 10 -36 -5 -5 -29 39 -40 75 -5 13 -3 22 3 22 6 0 11
-7 11 -15z m82 -50 c3 -14 1 -25 -3 -25 -5 0 -9 11 -9 25 0 14 2 25 4 25 2 0
6 -11 8 -25z m18 -116 c0 -6 -4 -7 -10 -4 -5 3 -10 11 -10 16 0 6 5 7 10 4 6
-3 10 -11 10 -16z m1670 -19 c11 -21 20 -56 19 -77 l-1 -38 -13 50 c-7 28 -18
62 -24 78 -16 40 -4 33 19 -13z m-1551 -107 c2 -2 -3 -3 -11 -3 -20 0 -108 82
-108 100 0 7 26 -11 58 -40 31 -30 59 -55 61 -57z m1280 -157 c1 -119 -8 -86
-13 45 -2 76 -1 101 5 74 4 -22 8 -76 8 -119z m-1268 85 c7 11 9 10 9 -4 0
-10 7 -25 15 -33 15 -15 20 -46 16 -91 -1 -16 4 -23 16 -23 15 0 15 -2 3 -9
-21 -14 -30 -4 -30 34 0 51 -15 81 -48 94 -35 14 -43 29 -35 61 5 20 7 19 25
-11 16 -25 22 -29 29 -18z m-100 -366 c-7 -29 -8 7 -6 125 2 91 5 170 6 175 9
28 8 -267 0 -300z m214 153 c9 -23 26 -51 38 -63 12 -11 29 -33 37 -48 12 -24
12 -30 1 -37 -17 -10 -13 -14 80 -108 36 -37 100 -87 142 -112 80 -46 89 -67
14 -32 -60 29 -97 58 -224 178 -106 100 -114 110 -133 171 -26 84 -25 93 4 93
19 0 27 -9 41 -42z m-259 -114 c-4 -18 -11 -34 -16 -34 -9 0 -5 47 7 80 9 26
16 -8 9 -46z m792 -311 c-15 -2 -42 -2 -60 0 -18 2 -6 4 27 4 33 0 48 -2 33
-4z m-141 -114 c1 -11 -3 -19 -8 -19 -10 0 -69 28 -69 33 0 1 17 3 38 3 31 1
38 -2 39 -17z m831 -200 c-3 -8 -7 -3 -11 10 -4 17 -3 21 5 13 5 -5 8 -16 6
-23z m336 -114 c4 -25 4 -50 0 -56 -3 -6 0 -15 7 -20 20 -12 20 -232 0 -251
-11 -11 -12 -8 -7 17 6 36 9 102 5 170 l-2 50 -7 -45 c-6 -37 -7 -29 -9 45 -1
50 -4 100 -7 113 -4 12 -2 22 4 22 5 0 13 -20 16 -45z m106 -77 c0 -38 -5 -34
-13 10 -4 21 -3 31 3 27 6 -3 10 -20 10 -37z m-340 22 c0 -5 -5 -10 -11 -10
-5 0 -7 5 -4 10 3 6 8 10 11 10 2 0 4 -4 4 -10z m-2058 -91 c-100 -189 -135
-264 -139 -298 -2 -24 0 -31 6 -22 5 7 14 10 20 7 6 -4 11 0 11 8 0 9 4 16 8
16 5 0 9 -14 9 -30 0 -17 7 -38 16 -47 14 -14 16 -13 22 23 4 21 11 55 16 74
5 19 9 56 9 82 0 26 5 50 10 53 6 3 11 16 11 28 1 12 6 -4 11 -35 8 -51 5 -72
-22 -170 -44 -161 -48 -173 -92 -272 -53 -119 -94 -234 -108 -301 -6 -30 -15
-57 -19 -60 -9 -5 -6 267 5 440 5 93 5 170 1 254 -1 19 3 36 10 38 16 6 38
-40 52 -108 13 -60 17 -255 6 -304 -3 -17 3 -8 15 20 11 28 25 58 31 69 6 11
8 40 4 75 -3 31 -2 68 4 82 9 24 8 26 -10 22 -11 -3 -19 0 -19 6 0 7 -4 9 -10
6 -6 -4 -10 12 -10 41 0 77 92 284 158 356 14 15 27 26 29 24 2 -2 -13 -37
-35 -77z m2068 56 c0 -8 -2 -15 -4 -15 -2 0 -6 7 -10 15 -3 8 -1 15 4 15 6 0
10 -7 10 -15z m-1826 -101 c-9 -44 -18 -122 -20 -174 -9 -246 -21 -440 -27
-446 -4 -4 -5 110 -3 252 3 238 13 342 36 399 4 11 11 29 14 39 4 10 9 17 12
14 2 -3 -3 -41 -12 -84z m2192 20 c-10 -26 -26 -4 -26 34 l1 37 15 -28 c9 -16
13 -35 10 -43z m-345 16 c5 0 9 -6 9 -13 0 -8 7 -28 16 -45 15 -31 12 -52 -7
-52 -13 0 -26 38 -33 96 -3 27 -3 41 0 32 3 -10 10 -18 15 -18z m-1556 -21
c-4 -5 -1 -9 4 -9 6 0 11 -10 11 -22 0 -19 -2 -20 -10 -8 -8 12 -11 13 -19 1
-5 -8 -11 -9 -15 -3 -8 14 14 63 26 56 4 -3 6 -10 3 -15z m1921 -109 l-6 -55
14 35 14 35 1 -32 c1 -30 -29 -138 -48 -173 -5 -9 -12 -30 -16 -48 -3 -18 -10
-30 -15 -27 -9 5 5 60 20 80 14 20 23 92 22 190 -1 78 1 94 9 75 6 -14 8 -50
5 -80z m313 -42 c0 -24 3 -63 7 -88 8 -51 8 -412 -1 -480 -4 -42 -3 -40 16 20
11 36 25 76 32 89 7 15 12 71 12 147 0 68 3 124 7 124 26 0 18 -268 -8 -295
-8 -7 -14 -22 -14 -32 0 -10 -7 -31 -15 -47 -17 -32 -35 -180 -33 -266 1 -34
2 -42 5 -20 3 39 28 158 48 235 8 28 21 85 30 127 9 43 21 81 27 84 7 5 9 -2
4 -22 -3 -16 -11 -56 -17 -89 -5 -33 -25 -123 -44 -200 -30 -123 -35 -160 -39
-310 -4 -184 -6 -207 -20 -216 -23 -17 -66 -393 -58 -518 4 -69 2 -92 -7 -87
-8 5 -11 -40 -11 -173 0 -100 -3 -181 -7 -181 -14 0 -10 660 4 668 14 9 24
219 25 517 1 210 -11 348 -30 367 -9 9 -12 7 -12 -9 0 -12 -4 -24 -9 -27 -5
-3 -12 39 -16 94 -3 55 -11 103 -16 106 -7 4 -8 -7 -5 -28 3 -18 8 -60 11 -93
3 -33 9 -105 15 -160 5 -55 10 -136 10 -180 0 -59 3 -75 11 -62 5 9 15 17 20
17 6 0 7 -6 2 -12 -11 -18 -22 -123 -29 -268 -3 -69 -14 -192 -25 -275 -11
-82 -20 -170 -20 -195 1 -53 -9 -73 -33 -64 -15 6 -17 19 -13 113 4 111 30
321 41 339 10 17 8 314 -3 384 -6 35 -13 97 -16 138 -8 126 -35 379 -50 480
-9 61 -11 110 -6 138 5 23 5 45 0 48 -5 3 -10 -14 -10 -38 -1 -40 -2 -41 -9
-13 -11 43 -12 155 -1 155 10 0 21 -34 21 -67 0 -13 4 -23 9 -23 9 0 35 -106
55 -225 l14 -80 1 75 c2 61 4 72 14 58 10 -15 13 -10 23 35 18 85 44 219 50
260 3 25 10 37 21 37 11 0 13 -4 6 -12 -6 -7 -13 -40 -16 -73 -3 -33 -17 -108
-32 -167 -27 -110 -30 -173 -6 -113 25 60 71 264 71 313 0 46 7 82 16 82 2 0
3 -19 3 -42z m-488 -85 c-10 -17 -10 -17 -11 2 0 11 4 31 8 45 l7 25 3 -27 c2
-15 -1 -35 -7 -45z m59 -4 c0 -6 -4 -7 -10 -4 -5 3 -10 11 -10 16 0 6 5 7 10
4 6 -3 10 -11 10 -16z m-2603 -127 c-8 -129 -25 -194 -26 -94 l-1 62 -30 0
c-34 0 -34 0 -21 -32 6 -13 12 -40 16 -61 3 -21 9 -36 13 -33 4 2 7 -111 6
-252 -1 -196 -5 -276 -18 -337 -40 -195 -46 -223 -55 -265 -5 -25 -10 -101
-11 -170 -3 -220 0 -205 -40 -206 -19 0 -62 -4 -95 -8 -56 -6 -58 -6 -35 8 14
8 45 18 69 22 33 5 45 12 49 28 6 19 7 18 13 -9 l7 -30 1 33 c1 33 -7 38 -44
22 l-20 -9 20 -1 c40 -4 -39 -18 -109 -19 l-68 -1 7 57 c4 31 10 66 14 77 5
12 16 63 26 114 14 67 23 92 34 92 10 0 12 3 5 10 -7 7 -6 35 2 88 8 49 9 81
3 89 -7 7 -6 14 1 18 5 3 10 0 11 -7 1 -7 5 3 9 22 5 19 6 47 3 61 -3 15 2 52
11 82 9 30 16 89 16 130 0 42 5 88 11 104 10 26 14 61 39 278 4 44 10 82 11
85 1 3 5 -42 9 -100 3 -58 9 -112 13 -121 5 -11 2 -23 -10 -34 -11 -11 -23
-47 -30 -89 -6 -39 -14 -82 -17 -96 -5 -20 -3 -18 11 8 11 22 24 32 40 32 14
0 21 4 18 10 -3 6 1 10 10 10 9 0 23 6 31 14 12 13 11 15 -6 21 -31 10 -60 -4
-61 -28 -1 -18 -2 -19 -6 -4 -5 21 18 107 29 107 4 0 10 -5 13 -10 11 -18 22
-2 23 34 1 29 -2 34 -16 30 -13 -5 -14 -4 -3 4 11 8 12 38 7 153 -6 127 -5
141 7 120 14 -24 15 -24 26 -3 6 11 11 27 11 35 0 8 11 18 24 21 14 3 28 15
31 26 3 11 11 20 17 20 8 0 9 -33 5 -108z m2590 11 c-11 -10 -27 8 -27 30 l0
21 16 -22 c9 -13 14 -26 11 -29z m30 15 c-3 -7 -5 -2 -5 12 0 14 2 19 5 13 2
-7 2 -19 0 -25z m10 -108 c6 14 13 34 16 45 6 18 1 -42 -7 -90 -2 -11 -4 -30
-5 -43 0 -13 -5 -21 -9 -18 -5 3 -7 19 -4 36 3 19 -1 37 -11 48 -8 9 -16 31
-17 47 -4 52 2 52 15 0 12 -47 13 -49 22 -25z m73 3 c0 -26 -3 -34 -11 -26 -9
9 -3 63 7 63 2 0 4 -17 4 -37z m-2090 -55 c-6 -13 -16 -52 -24 -87 -8 -35 -19
-68 -25 -74 -11 -11 -4 21 24 121 10 34 21 62 26 62 5 0 4 -10 -1 -22z m-170
-8 c0 -5 -2 -10 -4 -10 -3 0 -8 5 -11 10 -3 6 -1 10 4 10 6 0 11 -4 11 -10z
m2244 -113 c-9 -28 -19 -46 -22 -39 -2 7 4 38 14 70 10 31 20 49 22 39 2 -9
-4 -41 -14 -70z m553 21 c-3 -8 -6 -5 -6 6 -1 11 2 17 5 13 3 -3 4 -12 1 -19z
m-2830 -20 c-3 -8 -6 -5 -6 6 -1 11 2 17 5 13 3 -3 4 -12 1 -19z m35 -60 c-7
-7 -12 -8 -12 -2 0 6 3 14 7 17 3 4 9 5 12 2 2 -3 -1 -11 -7 -17z m2205 -50
c-3 -7 -5 -2 -5 12 0 14 2 19 5 13 2 -7 2 -19 0 -25z m-1390 -90 c-3 -7 -5 -2
-5 12 0 14 2 19 5 13 2 -7 2 -19 0 -25z m850 -15 c-3 -10 -5 -2 -5 17 0 19 2
27 5 18 2 -10 2 -26 0 -35z m1273 -135 c0 -38 -7 -76 -19 -102 -22 -49 -43
-125 -48 -181 -3 -22 -11 -54 -19 -72 -8 -17 -14 -35 -14 -40 0 -14 -105 -242
-112 -243 -11 0 21 106 56 183 19 42 49 128 65 192 17 63 40 141 51 172 11 32
20 81 20 111 0 33 4 51 10 47 6 -3 10 -34 10 -67z m-3670 -6 c0 -5 -17 -14
-39 -20 -46 -14 -51 -15 -51 -3 0 4 19 13 43 18 23 6 43 11 45 12 1 0 2 -3 2
-7z m-13 -98 c-3 -3 -12 -4 -19 -1 -8 3 -5 6 6 6 11 1 17 -2 13 -5z m20 -16
c-3 -8 -6 -5 -6 6 -1 11 2 17 5 13 3 -3 4 -12 1 -19z m-27 -6 c0 -8 -58 -32
-78 -32 -29 0 -8 20 31 28 23 6 43 10 45 11 1 1 2 -3 2 -7z m325 -43 c4 -6 14
-8 24 -5 9 3 6 -2 -6 -10 -13 -9 -23 -23 -23 -30 0 -8 -5 -14 -12 -14 -8 0 -6
-6 4 -17 14 -14 22 -15 43 -5 l26 12 -3 -52 c-3 -46 -6 -53 -25 -56 -17 -3
-20 1 -16 17 3 12 10 18 16 14 6 -4 8 0 4 10 -3 10 -2 17 3 17 6 0 10 5 10 10
0 6 -11 10 -25 10 -18 0 -25 -5 -25 -20 0 -11 -6 -20 -12 -21 -10 0 -10 -2 0
-6 6 -2 12 -11 12 -18 0 -7 -6 -16 -12 -19 -10 -5 -10 -7 0 -12 18 -9 15 -21
-8 -27 -11 -3 -20 -10 -20 -15 0 -11 63 -9 100 3 17 5 20 2 21 -22 3 -68 -6
-109 -26 -117 -9 -3 -15 0 -15 9 0 8 7 15 15 15 8 0 15 4 15 10 0 6 -20 7 -52
3 -29 -3 -68 -7 -85 -7 -22 -1 -32 -6 -30 -15 1 -8 -4 -16 -10 -18 -16 -6 -17
54 -2 94 6 15 15 48 19 73 24 120 38 177 49 198 12 23 35 29 46 11z m-360 -59
c-27 -12 -43 -12 -25 0 8 5 22 9 30 9 10 0 8 -3 -5 -9z m799 -136 c9 -3 16
-12 16 -20 0 -17 -17 -18 -23 -1 -3 6 -6 1 -7 -13 l-1 -25 -10 23 c-5 13 -7
28 -3 33 6 11 8 11 28 3z m104 -48 c2 -9 0 -16 -5 -15 -19 3 -33 -2 -33 -12 0
-6 7 -9 15 -5 22 8 18 -11 -4 -23 -17 -10 -19 -6 -23 37 -3 26 -3 51 0 55 6
12 46 -18 50 -37z m-181 -68 c-3 -7 -5 -2 -5 12 0 14 2 19 5 13 2 -7 2 -19 0
-25z m610 -25 c-3 -10 -5 -4 -5 12 0 17 2 24 5 18 2 -7 2 -21 0 -30z m-456 4
c-6 -8 -8 -22 -5 -32 5 -13 3 -16 -7 -13 -21 7 -23 40 -3 55 21 16 31 9 15
-10z m-498 -44 c-7 -2 -21 -2 -30 0 -10 3 -4 5 12 5 17 0 24 -2 18 -5z m56
-27 c-11 -10 -140 -33 -144 -26 -5 9 72 37 115 42 22 3 39 -7 29 -16z m-54
-46 c4 -6 -7 -10 -27 -9 -31 1 -32 1 -8 9 14 4 26 8 27 9 1 1 5 -3 8 -9z m505
0 c0 -5 -4 -10 -10 -10 -5 0 -10 5 -10 10 0 6 5 10 10 10 6 0 10 -4 10 -10z
m2546 -117 c-9 -32 -22 -76 -27 -98 -6 -22 -17 -53 -25 -68 -8 -16 -14 -37
-14 -47 0 -9 -8 -24 -17 -31 -15 -11 -16 -11 -5 1 6 8 12 22 12 32 0 26 60
238 73 259 19 31 21 12 3 -48z m-2406 21 c0 -17 -5 -24 -20 -24 -22 0 -27 29
-8 48 16 16 28 6 28 -24z m2680 29 c-8 -3 -26 -15 -40 -25 l-25 -20 25 3 c14
1 42 -1 63 -6 59 -12 29 -31 -83 -54 -52 -11 -103 -23 -112 -26 -14 -5 -18 -2
-18 13 0 14 16 28 58 48 31 16 68 39 82 52 14 12 34 22 45 21 14 0 16 -2 5 -6z
m-2663 -25 c-3 -8 -6 -5 -6 6 -1 11 2 17 5 13 3 -3 4 -12 1 -19z m-102 -28
c-2 -4 -18 -5 -35 -2 -29 4 -30 5 -13 21 15 15 19 15 35 2 9 -8 15 -18 13 -21z
m2422 18 c-3 -8 -6 -5 -6 6 -1 11 2 17 5 13 3 -3 4 -12 1 -19z m-2100 -55 c-3
-10 -5 -2 -5 17 0 19 2 27 5 18 2 -10 2 -26 0 -35z m1353 0 c-11 -17 -11 -17
-6 0 3 10 7 26 7 35 1 15 2 15 6 0 2 -10 -1 -25 -7 -35z m-2235 -2 c-6 -5 -37
-12 -70 -15 l-60 -6 40 20 c22 11 48 20 58 20 12 0 16 5 11 13 -4 6 1 4 12 -5
11 -11 15 -21 9 -27z m753 -6 c-3 -3 -9 2 -12 12 -6 14 -5 15 5 6 7 -7 10 -15
7 -18z m259 -7 c-3 -7 -5 -2 -5 12 0 14 2 19 5 13 2 -7 2 -19 0 -25z m-420
-55 c-2 -16 -4 -3 -4 27 0 30 2 43 4 28 2 -16 2 -40 0 -55z m2365 17 c-4 -25
-10 -40 -13 -35 -3 6 -1 30 4 55 12 57 20 41 9 -20z m481 53 c-7 -2 -21 -2
-30 0 -10 3 -4 5 12 5 17 0 24 -2 18 -5z m-3853 -7 c0 -3 -5 -17 -12 -33 -6
-15 -12 -30 -13 -33 -1 -3 -11 -25 -23 -50 -12 -25 -22 -52 -22 -60 -1 -14
-39 -91 -40 -80 0 10 52 165 72 213 11 26 24 47 29 47 5 0 9 -2 9 -4z m170
-25 c0 -4 -20 -14 -46 -21 -37 -11 -47 -11 -57 0 -9 10 -9 12 3 8 9 -3 29 0
45 7 36 16 55 18 55 6z m1017 -23 c-3 -7 -5 -2 -5 12 0 14 2 19 5 13 2 -7 2
-19 0 -25z m1443 -48 c-7 -67 -15 -56 -10 15 2 38 8 60 15 53 1 -2 -1 -32 -5
-68z m-1692 53 c-10 -2 -26 -2 -35 0 -10 3 -2 5 17 5 19 0 27 -2 18 -5z m-755
-43 c9 -17 11 -32 6 -36 -5 -3 -9 -17 -10 -32 l-1 -27 -9 30 c-5 17 -7 41 -4
53 4 15 2 21 -5 17 -5 -3 -10 -12 -10 -20 0 -14 -45 -29 -60 -20 -5 3 -19 1
-31 -5 -11 -6 -28 -9 -37 -5 -12 5 -9 11 19 28 28 18 90 42 121 46 3 1 13 -12
21 -29z m904 -57 c-3 -10 -5 -4 -5 12 0 17 2 24 5 18 2 -7 2 -21 0 -30z m142
16 c-7 -4 -17 -5 -22 -2 -5 3 -3 9 4 14 7 4 17 5 22 2 5 -3 3 -9 -4 -14z
m-198 -58 c-8 -22 -9 -19 -10 24 0 42 2 46 10 26 6 -15 6 -34 0 -50z m-43 37
c14 -14 16 -58 3 -58 -5 0 -16 -6 -23 -13 -7 -8 -47 -19 -89 -25 -41 -6 -97
-21 -124 -34 -28 -12 -52 -23 -55 -23 -3 0 -15 -6 -27 -13 -15 -8 -23 -9 -23
-2 0 5 5 10 11 10 14 0 64 52 61 63 -1 4 11 10 27 13 20 4 31 13 33 27 2 15
11 21 38 22 19 2 60 12 90 23 66 25 63 25 78 10z m-325 -45 c-8 -65 -13 -67
-13 -5 0 29 4 52 10 52 6 0 7 -19 3 -47z m-670 -38 c-21 -42 -39 -71 -41 -65
-5 15 55 140 67 140 6 0 -6 -34 -26 -75z m171 39 c12 -4 16 -20 16 -55 0 -41
-4 -53 -29 -75 -16 -14 -41 -50 -56 -79 -33 -68 -43 -76 -107 -79 -55 -4 -105
-23 -127 -50 -7 -9 -17 -13 -23 -10 -5 3 8 21 29 40 21 19 47 43 58 54 12 11
27 20 35 20 8 0 29 8 45 18 17 10 42 22 58 25 45 12 33 30 -15 22 -29 -4 -51
-16 -66 -33 l-23 -27 13 30 c18 41 36 59 86 84 24 12 48 34 55 49 6 15 18 32
26 38 11 8 7 10 -17 6 -37 -5 -42 5 -9 18 28 11 32 11 51 4z m61 -29 c-29 -30
-40 -28 -30 4 3 11 16 21 28 23 32 5 32 2 2 -27z m3265 -2 c-1 -28 -3 -34 -10
-22 -5 8 -7 24 -5 35 5 25 4 24 10 24 3 0 5 -17 5 -37z m-40 -5 c0 -5 -3 -8
-7 -9 -5 0 -26 -2 -48 -5 -33 -3 -37 -2 -24 8 17 14 79 18 79 6z m-3350 -7 c0
-5 -7 -12 -16 -15 -24 -9 -28 -7 -14 9 14 17 30 20 30 6z m850 -42 c0 -6 -3
-8 -7 -6 -5 3 -17 1 -28 -4 -17 -7 -17 -8 8 -8 53 -2 24 -31 -31 -31 -54 0
-69 -9 -69 -43 l0 -32 12 29 c12 29 12 29 17 5 4 -22 4 -175 0 -256 -1 -18 -5
-33 -9 -33 -5 0 -9 55 -9 121 -1 67 -6 124 -11 128 -6 3 -12 25 -15 48 -6 46
0 52 55 54 31 1 31 1 7 9 -24 8 -24 8 -2 9 12 1 22 5 22 10 0 10 39 20 53 13
4 -2 7 -8 7 -13z m54 -24 c-29 -27 -49 -22 -42 11 2 12 15 21 33 24 40 7 43
-4 9 -35z m2387 -5 c5 0 9 -7 9 -15 0 -8 -3 -15 -8 -15 -4 0 -8 -21 -9 -47 -2
-100 -7 -105 -12 -13 -6 91 -1 166 7 113 2 -13 8 -23 13 -23z m36 18 c-3 -8
-6 -5 -6 6 -1 11 2 17 5 13 3 -3 4 -12 1 -19z m-2414 -94 c23 -48 22 -64 -7
-64 -27 0 -36 16 -36 66 0 44 20 44 43 -2z m1187 -94 c0 -5 -2 -10 -4 -10 -3
0 -8 5 -11 10 -3 6 -1 10 4 10 6 0 11 -4 11 -10z m-2224 -150 c34 0 44 -4 44
-16 0 -14 2 -15 17 -3 15 12 16 12 10 -3 -3 -10 -2 -18 3 -18 6 0 10 9 10 20
0 11 6 20 14 20 12 0 13 -4 1 -28 l-14 -27 -131 -3 c-72 -2 -135 0 -139 3 -5
3 -7 14 -4 25 6 22 70 41 117 34 16 -2 48 -4 72 -4z"/>
<path d="M1466 2145 c-3 -9 -6 -26 -5 -38 1 -14 4 -9 9 13 9 37 7 52 -4 25z"/>
<path d="M1341 1935 c1 -22 5 -53 9 -70 6 -24 7 -19 8 26 0 30 -4 62 -9 70 -6
10 -8 2 -8 -26z"/>
<path d="M1751 2284 c0 -11 3 -14 6 -6 3 7 2 16 -1 19 -3 4 -6 -2 -5 -13z"/>
<path d="M4241 1951 c-13 -8 -13 -18 -1 -68 7 -32 18 -64 24 -71 5 -8 11 -53
12 -100 3 -130 7 -122 14 28 4 74 4 139 1 145 -3 5 -5 24 -4 42 0 34 -16 43
-46 24z"/>
<path d="M4182 1134 c-1 -39 -4 -100 -7 -135 l-4 -64 10 55 c5 30 8 91 6 135
l-3 80 -2 -71z"/>
<path d="M4147 830 c-4 -30 -10 -71 -12 -90 -4 -29 -2 -26 10 13 9 27 15 67
13 90 l-3 42 -8 -55z"/>
<path d="M4231 594 c0 -11 3 -14 6 -6 3 7 2 16 -1 19 -3 4 -6 -2 -5 -13z"/>
<path d="M4231 554 c0 -11 3 -14 6 -6 3 7 2 16 -1 19 -3 4 -6 -2 -5 -13z"/>
<path d="M1210 2192 c0 -5 14 -7 30 -4 17 2 30 6 30 8 0 2 -13 4 -30 4 -16 0
-30 -4 -30 -8z"/>
<path d="M1161 1784 c0 -11 3 -14 6 -6 3 7 2 16 -1 19 -3 4 -6 -2 -5 -13z"/>
<path d="M1071 1623 c-9 -10 -9 -18 -1 -33 15 -28 22 -25 14 6 -5 18 -3 25 4
21 5 -4 36 0 69 8 l58 14 -66 -2 c-38 -1 -71 -7 -78 -14z"/>
<path d="M1178 1553 c7 -3 16 -2 19 1 4 3 -2 6 -13 5 -11 0 -14 -3 -6 -6z"/>
<path d="M1100 1521 c-43 -6 -45 -8 -48 -41 -3 -29 10 -38 14 -9 1 5 2 12 3
17 0 4 17 8 37 10 19 1 44 7 55 12 15 9 19 7 20 -7 3 -37 2 -60 -10 -156 -7
-55 -11 -101 -8 -103 7 -7 30 155 31 221 1 68 -1 69 -94 56z"/>
<path d="M1084 1468 c-3 -4 2 -8 10 -8 8 0 17 4 20 8 3 5 -2 9 -10 9 -8 0 -17
-4 -20 -9z"/>
<path d="M1037 1433 c-12 -12 -7 -53 6 -53 9 0 12 10 9 30 -5 32 -5 33 -15 23z"/>
<path d="M1094 1395 c-18 -14 -18 -14 4 -8 12 3 22 9 22 14 0 12 -3 11 -26 -6z"/>
<path d="M1141 1384 c0 -11 3 -14 6 -6 3 7 2 16 -1 19 -3 4 -6 -2 -5 -13z"/>
<path d="M1100 1322 c-19 -2 -39 -8 -45 -14 -7 -7 3 -9 35 -4 66 10 74 24 10
18z"/>
<path d="M1026 1311 c-4 -7 -10 -40 -11 -74 -2 -34 -2 -51 1 -37 2 14 9 41 15
61 12 40 9 73 -5 50z"/>
<path d="M1143 1235 c0 -27 2 -38 4 -22 2 15 2 37 0 50 -2 12 -4 0 -4 -28z"/>
<path d="M1032 1178 c-2 -42 -18 -59 -25 -26 -2 14 -5 7 -6 -17 -1 -24 -4 -35
-9 -28 -8 12 -16 -13 -57 -188 -18 -79 -19 -119 -1 -70 8 22 15 31 20 23 11
-18 37 -14 63 10 21 19 26 20 34 8 8 -11 12 -12 16 -2 7 17 23 15 23 -4 0 -8
4 -13 9 -9 5 3 11 -3 13 -12 2 -10 4 36 4 102 0 66 -1 100 -3 77 -3 -34 -8
-42 -19 -38 -9 3 -18 6 -20 6 -2 0 -4 10 -4 23 0 13 -5 28 -10 33 -14 14 6 31
39 36 14 1 26 8 28 15 7 20 -66 -3 -88 -28 -10 -12 -19 -32 -19 -44 0 -13 -7
-36 -15 -51 -8 -16 -15 -37 -15 -46 0 -10 -4 -18 -10 -18 -5 0 -10 -6 -10 -14
0 -8 -5 -18 -11 -22 -14 -8 -4 44 16 84 8 15 15 42 17 59 1 17 6 29 10 27 4
-3 8 2 8 11 0 9 7 30 16 46 8 17 13 45 11 62 -4 31 -4 31 -5 -5z m15 -240 c-3
-7 -5 -2 -5 12 0 14 2 19 5 13 2 -7 2 -19 0 -25z"/>
<path d="M1232 1111 c-5 -3 -11 -18 -14 -33 l-5 -28 56 6 c58 7 75 14 54 21
-18 6 -16 23 2 23 8 0 15 5 15 10 0 11 -92 11 -108 1z m58 -20 c0 -5 -9 -11
-20 -14 -11 -3 -20 -1 -20 3 0 5 8 11 18 13 9 3 18 5 20 6 1 0 2 -3 2 -8z"/>
<path d="M2395 5230 c-25 -11 1 -11 35 0 20 6 21 8 5 8 -11 0 -29 -3 -40 -8z"/>
<path d="M3081 5151 c-11 -7 -9 -10 8 -16 11 -3 21 -10 21 -15 0 -5 30 -24 68
-42 37 -18 73 -39 80 -45 7 -7 18 -13 23 -13 6 0 35 -23 65 -51 61 -59 71 -57
19 4 -19 22 -40 55 -46 72 -9 24 -26 38 -81 65 -39 19 -78 35 -87 36 -9 1 -25
5 -36 8 -11 4 -26 2 -34 -3z"/>
<path d="M2530 4790 c-9 -6 6 -7 45 -3 33 3 62 7 64 9 10 9 -95 3 -109 -6z"/>
<path d="M3490 4774 c1 -16 29 -60 29 -44 0 8 -6 24 -14 34 -8 11 -15 16 -15
10z"/>
<path d="M1894 4701 c-28 -32 -45 -65 -58 -111 -10 -36 -26 -87 -37 -114 -37
-95 -12 -54 64 106 43 88 76 162 75 163 -2 2 -21 -18 -44 -44z"/>
<path d="M3590 4744 c0 -3 13 -24 29 -47 43 -64 64 -108 72 -152 l6 -40 2 38
c0 21 -6 52 -15 70 -10 19 -13 32 -6 35 11 3 4 42 -8 42 -5 0 -11 9 -15 19 -5
17 -65 49 -65 35z"/>
<path d="M3542 4710 c0 -14 2 -19 5 -12 2 6 2 18 0 25 -3 6 -5 1 -5 -13z"/>
<path d="M3560 4601 c0 -5 7 -33 16 -62 9 -30 18 -60 20 -66 6 -22 27 -14 21
7 -7 28 0 25 16 -7 l14 -27 5 37 c2 21 0 43 -5 50 -6 8 -7 6 -3 -6 3 -11 2
-16 -4 -12 -6 3 -10 17 -10 31 0 13 -9 33 -20 44 -20 20 -50 27 -50 11z"/>
<path d="M1746 4513 c-6 -14 -5 -15 5 -6 7 7 10 15 7 18 -3 3 -9 -2 -12 -12z"/>
<path d="M3701 4484 c0 -11 3 -14 6 -6 3 7 2 16 -1 19 -3 4 -6 -2 -5 -13z"/>
<path d="M2772 4430 c0 -14 2 -19 5 -12 2 6 2 18 0 25 -3 6 -5 1 -5 -13z"/>
<path d="M3332 4430 c0 -14 2 -19 5 -12 2 6 2 18 0 25 -3 6 -5 1 -5 -13z"/>
<path d="M3045 4418 c-22 -6 -62 -18 -90 -27 -45 -14 -50 -19 -53 -48 -2 -18
-11 -38 -20 -45 -9 -8 -22 -23 -29 -34 -9 -17 -8 -21 3 -21 8 0 14 4 14 8 0 4
17 14 38 22 41 16 101 67 80 67 -7 1 0 8 17 17 33 18 154 30 182 18 10 -5 22
-7 26 -6 5 1 6 -3 2 -8 -3 -6 3 -15 14 -21 14 -7 22 -7 27 1 10 16 -33 47 -83
61 -24 7 -43 16 -43 20 0 10 -33 8 -85 -4z"/>
<path d="M3641 4410 c0 -14 4 -32 9 -40 9 -13 10 -13 9 0 -1 8 -5 26 -9 40
l-8 25 -1 -25z"/>
<path d="M3730 4414 c0 -5 7 -18 15 -28 8 -11 15 -16 15 -10 0 5 -7 18 -15 28
-8 11 -15 16 -15 10z"/>
<path d="M1756 4375 c-3 -9 -6 -26 -5 -38 1 -14 4 -9 9 13 9 37 7 52 -4 25z"/>
<path d="M2828 4318 c-3 -7 -3 -18 -1 -24 5 -15 54 6 50 21 -5 15 -44 18 -49
3z"/>
<path d="M2900 4260 c-8 -5 -10 -10 -5 -10 6 0 17 5 25 10 8 5 11 10 5 10 -5
0 -17 -5 -25 -10z"/>
<path d="M3019 4261 c11 -7 7 -10 -15 -13 -26 -3 -29 -7 -29 -38 1 -28 5 -36
23 -38 12 -2 20 -7 17 -12 -9 -15 88 -9 113 6 12 8 23 24 23 37 1 15 3 17 6 6
2 -10 13 -19 24 -22 19 -5 18 -4 -1 24 -13 18 -33 31 -56 35 -19 3 -37 10 -40
15 -3 5 -22 9 -42 9 -26 0 -33 -3 -23 -9z m54 -8 c-7 -2 -19 -2 -25 0 -7 3 -2
5 12 5 14 0 19 -2 13 -5z m-15 -46 c2 -12 -3 -17 -17 -17 -15 0 -21 6 -21 21
0 25 33 22 38 -4z m57 3 c18 -20 17 -20 -11 -20 -22 0 -25 -3 -14 -10 8 -5 11
-12 8 -15 -13 -13 -28 7 -28 36 0 34 19 38 45 9z"/>
<path d="M2360 4212 c-45 -22 -40 -38 11 -35 33 2 40 -1 35 -13 -11 -30 7 -37
20 -8 10 23 13 25 13 9 1 -30 34 -47 57 -30 18 13 18 14 2 15 -10 0 -18 5 -18
11 0 5 -4 7 -10 4 -5 -3 -10 1 -10 9 0 21 29 21 37 0 4 -12 8 -13 13 -3 6 9
15 4 33 -15 15 -16 34 -26 44 -24 14 3 6 12 -32 41 -41 31 -56 36 -82 32 -34
-6 -47 10 -15 18 9 3 -1 5 -23 6 -22 0 -56 -7 -75 -17z"/>
<path d="M2916 4191 c-4 -7 -5 -15 -2 -18 9 -9 19 4 14 18 -4 11 -6 11 -12 0z"/>
<path d="M3380 3989 c0 -5 5 -7 10 -4 6 3 10 8 10 11 0 2 -4 4 -10 4 -5 0 -10
-5 -10 -11z"/>
<path d="M3601 3900 c0 -8 4 -22 9 -30 12 -18 12 -2 0 25 -6 13 -9 15 -9 5z"/>
<path d="M3566 3855 c8 -37 14 -45 14 -19 0 10 -5 26 -10 34 -8 11 -9 7 -4
-15z"/>
<path d="M3348 3863 c7 -3 16 -2 19 1 4 3 -2 6 -13 5 -11 0 -14 -3 -6 -6z"/>
<path d="M3148 3800 c-14 -21 -34 -28 -22 -7 4 7 3 9 -2 4 -5 -5 -9 -12 -9
-15 0 -10 -38 -52 -47 -52 -5 0 -7 3 -7 8 3 19 -2 33 -11 27 -5 -3 -10 1 -10
10 0 11 -5 15 -15 11 -8 -3 -15 -1 -15 4 0 5 -13 8 -29 7 l-28 -2 25 -32 c13
-18 29 -30 35 -26 5 3 7 2 4 -4 -8 -13 22 -55 34 -47 5 3 9 2 8 -3 -4 -22 3
-34 18 -31 9 2 17 10 18 19 4 23 35 88 57 122 11 15 17 27 14 27 -3 0 -11 -9
-18 -20z"/>
<path d="M2805 3800 c-8 -14 3 -30 21 -30 8 0 12 -4 9 -10 -3 -5 1 -10 9 -10
9 0 16 8 16 18 0 14 2 15 10 2 8 -12 10 -12 10 -1 0 29 -61 54 -75 31z"/>
<path d="M3592 3780 c0 -19 2 -27 5 -17 2 9 2 25 0 35 -3 9 -5 1 -5 -18z"/>
<path d="M3641 3782 c0 -18 -5 -31 -10 -28 -12 8 -19 -12 -42 -119 -10 -49
-23 -108 -28 -130 -10 -40 -10 -40 8 -18 10 12 28 66 40 120 12 54 27 114 33
134 5 20 8 44 5 55 -3 12 -5 6 -6 -14z"/>
<path d="M3572 3735 c-1 -16 -5 -41 -8 -55 -5 -22 -4 -23 6 -7 6 9 9 34 7 55
-3 32 -4 33 -5 7z"/>
<path d="M3652 3657 c-13 -56 -31 -123 -42 -149 -10 -27 -15 -48 -11 -48 4 0
14 18 21 40 7 22 19 40 27 40 9 0 11 -5 6 -12 -4 -7 -8 -17 -10 -23 -22 -107
-23 -128 -7 -112 14 13 37 169 40 265 1 56 2 102 1 102 -1 0 -12 -46 -25 -103z
m5 -99 c-3 -8 -6 -5 -6 6 -1 11 2 17 5 13 3 -3 4 -12 1 -19z"/>
<path d="M3523 3700 c-5 -22 -7 -37 -2 -35 9 6 23 64 17 70 -2 3 -9 -13 -15
-35z"/>
<path d="M3182 3710 c-10 -11 -26 -18 -34 -15 -8 3 -21 -1 -28 -10 -11 -13 -9
-15 13 -15 14 0 29 5 33 11 3 6 20 19 38 30 20 12 25 19 14 19 -10 0 -26 -9
-36 -20z"/>
<path d="M3500 3595 c-6 -31 -10 -59 -7 -61 2 -2 9 21 16 52 7 30 11 58 8 61
-3 2 -11 -21 -17 -52z"/>
<path d="M3550 3645 c0 -5 -45 -170 -80 -294 -11 -41 -26 -83 -31 -93 -6 -11
-8 -22 -5 -25 10 -10 87 165 96 220 6 28 16 81 25 117 17 79 18 80 5 80 -5 0
-10 -2 -10 -5z"/>
<path d="M2310 3611 c0 -6 4 -13 10 -16 6 -3 7 1 4 9 -7 18 -14 21 -14 7z"/>
<path d="M2998 3597 c-21 -6 -38 -14 -38 -19 0 -11 5 -10 51 4 22 6 39 15 39
20 0 9 -2 9 -52 -5z"/>
<path d="M3062 3585 c0 -16 2 -22 5 -12 2 9 2 23 0 30 -3 6 -5 -1 -5 -18z"/>
<path d="M2507 3588 c-9 -6 -9 -10 -1 -15 6 -5 13 -14 16 -22 3 -10 26 -14 91
-15 48 -1 87 2 87 6 0 11 -34 26 -47 21 -21 -8 -14 13 7 23 14 6 -4 9 -61 9
-44 0 -86 -3 -92 -7z"/>
<path d="M2780 3590 c-13 -9 -12 -11 5 -9 11 1 36 1 55 0 48 -2 21 -17 -48
-26 -79 -10 -55 -18 50 -17 117 2 190 13 196 30 3 11 0 12 -16 3 -23 -12 -133
-4 -142 10 -9 14 -84 20 -100 9z"/>
<path d="M2745 3579 c-4 -6 -5 -12 -2 -15 2 -3 7 2 10 11 7 17 1 20 -8 4z"/>
<path d="M2320 3571 c0 -16 43 -91 52 -91 10 0 -2 29 -29 69 -13 19 -23 28
-23 22z"/>
<path d="M3717 3546 c-7 -23 -10 -27 -18 -15 -6 10 -9 6 -9 -17 0 -17 -9 -79
-19 -138 -19 -104 -17 -145 7 -160 9 -5 22 47 25 102 1 12 5 22 10 22 4 0 7 7
7 16 0 22 -24 12 -28 -12 -2 -10 -8 -23 -12 -28 -10 -10 -3 27 10 59 21 52 41
143 38 170 l-3 30 -8 -29z"/>
<path d="M3051 3524 c0 -11 3 -14 6 -6 3 7 2 16 -1 19 -3 4 -6 -2 -5 -13z"/>
<path d="M2552 3497 c43 -83 54 -93 94 -90 42 3 38 -1 -10 -12 -21 -4 -26 -9
-17 -14 13 -8 92 7 101 19 3 4 33 13 68 20 43 9 66 19 73 32 6 11 9 21 7 22
-2 1 -28 0 -58 -3 l-55 -5 50 -7 c50 -6 50 -6 -17 -7 -38 -1 -68 2 -68 7 0 5
-10 11 -22 14 -13 3 -53 14 -90 25 l-68 21 12 -22z"/>
<path d="M2514 3398 c5 -39 15 -61 36 -82 l29 -30 -11 37 c-6 20 -15 37 -19
37 -3 0 -10 20 -13 45 -10 65 -30 58 -22 -7z"/>
<path d="M3586 3434 c-4 -9 -4 -19 -1 -22 2 -3 7 3 11 12 4 9 4 19 1 22 -2 3
-7 -3 -11 -12z"/>
<path d="M3717 3403 c-4 -3 -7 -11 -7 -17 0 -6 5 -5 12 2 6 6 9 14 7 17 -3 3
-9 2 -12 -2z"/>
<path d="M3577 3368 c3 -23 1 -38 -5 -38 -5 0 -12 -15 -14 -34 -5 -44 9 -36
21 12 18 74 22 97 13 83 -8 -11 -10 -11 -15 0 -3 8 -3 -3 0 -23z"/>
<path d="M3618 3365 c-15 -44 -20 -105 -9 -105 6 0 10 3 9 8 -1 4 2 19 6 33 4
15 6 40 4 55 -3 25 -4 26 -10 9z"/>
<path d="M3420 3320 c-7 -18 -29 -49 -49 -70 -65 -71 -65 -70 -39 -70 27 1 52
18 56 40 2 8 14 39 28 69 13 30 23 56 20 58 -2 2 -9 -10 -16 -27z"/>
<path d="M3526 3295 c-9 -26 -7 -32 5 -12 6 10 9 21 6 23 -2 3 -7 -2 -11 -11z"/>
<path d="M3636 3228 c-17 -79 -18 -75 14 -70 31 4 42 33 19 47 -6 4 -14 17
-19 29 -7 20 -8 20 -14 -6z"/>
<path d="M3242 3050 c0 -14 2 -19 5 -12 2 6 2 18 0 25 -3 6 -5 1 -5 -13z"/>
<path d="M3251 2954 c0 -11 3 -14 6 -6 3 7 2 16 -1 19 -3 4 -6 -2 -5 -13z"/>
<path d="M2500 2924 c0 -12 63 -64 77 -64 7 0 13 -4 13 -10 0 -5 -5 -10 -12
-10 -6 0 -3 -9 7 -20 18 -19 17 -20 -24 -16 -47 4 -123 -12 -116 -24 2 -4 15
-5 28 -3 20 4 25 0 29 -21 6 -31 2 -36 -29 -36 -12 0 -23 -3 -23 -7 0 -16 53
-61 67 -56 7 3 13 2 12 -3 -4 -22 2 -34 17 -34 8 0 13 -4 9 -9 -3 -5 -1 -12 3
-15 15 -9 62 89 62 128 0 20 9 64 21 98 20 59 20 63 3 75 -24 18 -41 16 -49
-4 -6 -17 -7 -17 -20 0 -7 10 -17 17 -21 15 -5 -1 -19 3 -31 10 -13 7 -23 10
-23 6z m91 -195 c-5 -13 -10 -19 -10 -12 -1 15 10 45 15 40 3 -2 0 -15 -5 -28z
m-18 -44 c-3 -9 -8 -14 -10 -11 -3 3 -2 9 2 15 9 16 15 13 8 -4z"/>
<path d="M2690 2836 c0 -11 33 -36 48 -36 15 0 15 2 2 10 -10 6 -11 10 -2 10
26 0 11 16 -18 18 -16 1 -30 0 -30 -2z"/>
<path d="M2656 2788 c-18 -30 -28 -75 -18 -82 12 -7 59 46 57 64 -1 8 -3 21
-3 28 -3 19 -20 14 -36 -10z"/>
<path d="M2270 2761 c0 -5 5 -13 10 -16 6 -3 10 -2 10 4 0 5 -4 13 -10 16 -5
3 -10 2 -10 -4z"/>
<path d="M2850 2763 c-42 -8 -41 -18 0 -18 23 0 42 5 45 13 4 12 0 13 -45 5z"/>
<path d="M2725 2750 c17 -7 17 -9 3 -9 -10 -1 -18 -7 -18 -14 0 -22 11 -27 31
-14 14 8 22 9 27 1 5 -7 15 -6 32 3 l25 13 -31 0 c-17 0 -37 7 -44 15 -7 8
-20 15 -29 14 -12 0 -11 -2 4 -9z"/>
<path d="M2930 2670 c0 -5 5 -10 11 -10 6 0 9 -7 5 -15 -3 -8 -2 -15 3 -15 10
0 21 37 13 44 -9 10 -32 7 -32 -4z"/>
<path d="M3447 2417 c-14 -37 -4 -352 12 -343 3 2 7 -24 8 -58 1 -33 7 -90 13
-126 6 -36 13 -85 15 -110 12 -103 26 -208 36 -260 17 -87 52 -190 62 -183 6
4 8 -1 4 -10 -3 -9 2 -56 12 -104 11 -49 25 -146 32 -216 14 -140 7 -232 -32
-402 -44 -196 -40 -585 7 -585 15 0 15 5 -1 262 -6 88 12 245 64 543 5 27 6
55 4 62 -3 7 -1 13 5 13 18 0 13 62 -26 293 -12 73 -20 97 -32 97 -11 0 -12 2
-2 8 10 7 9 22 -7 73 -32 110 -71 282 -77 350 -4 35 -10 69 -14 74 -4 6 -10
55 -13 109 -4 55 -10 102 -15 105 -4 3 -9 38 -10 76 -2 39 -6 78 -9 89 -3 10
-10 73 -17 140 -7 72 -14 114 -19 103z m50 -539 c-3 -8 -6 -5 -6 6 -1 11 2 17
5 13 3 -3 4 -12 1 -19z m83 -396 c7 -43 17 -81 21 -87 14 -14 11 -35 -4 -35
-17 0 -48 99 -50 158 -1 23 -4 42 -7 42 -4 0 -6 17 -6 37 l0 37 17 -38 c9 -21
22 -72 29 -114z"/>
<path d="M2071 2324 c0 -11 3 -14 6 -6 3 7 2 16 -1 19 -3 4 -6 -2 -5 -13z"/>
<path d="M3557 2278 c8 -70 13 -74 13 -10 0 28 -4 53 -10 57 -5 3 -7 -15 -3
-47z"/>
<path d="M2176 2229 c33 -40 50 -222 56 -602 1 -71 6 -131 12 -134 5 -3 6 -1
2 5 -4 7 -3 12 3 12 16 0 25 -22 11 -30 -8 -5 -9 -10 -2 -14 6 -3 14 4 18 16
8 26 7 315 -1 328 -3 5 -8 91 -10 191 -3 99 -8 185 -11 190 -3 5 -24 19 -47
31 -25 12 -37 15 -31 7z m75 -80 c-9 -22 -10 -22 -10 -3 -1 11 2 24 6 27 12
12 14 0 4 -24z m19 -620 c0 -5 -4 -9 -8 -9 -5 0 -9 7 -9 15 0 8 4 12 9 9 4 -3
8 -9 8 -15z"/>
<path d="M1631 2193 c-1 -6 -4 -20 -7 -30 -5 -17 -5 -17 6 0 6 10 9 23 6 30
-3 9 -5 9 -5 0z"/>
<path d="M3570 2184 c0 -10 5 -26 10 -34 8 -11 9 -7 4 15 -8 37 -14 45 -14 19z"/>
<path d="M3740 2190 c0 -5 5 -10 10 -10 6 0 10 5 10 10 0 6 -4 10 -10 10 -5 0
-10 -4 -10 -10z"/>
<path d="M2300 2150 c0 -5 5 -10 11 -10 5 0 7 5 4 10 -3 6 -8 10 -11 10 -2 0
-4 -4 -4 -10z"/>
<path d="M3586 2065 c4 -38 9 -72 11 -75 8 -9 0 119 -9 132 -5 7 -5 -17 -2
-57z"/>
<path d="M2565 2110 c-3 -6 5 -10 19 -10 21 0 26 -6 36 -52 12 -55 23 -163 40
-408 6 -80 17 -217 25 -305 8 -88 20 -212 25 -275 6 -63 15 -153 20 -200 19
-152 52 -528 66 -743 7 -95 8 -97 32 -97 l25 0 -6 102 c-13 225 -27 418 -37
508 -6 52 -20 178 -31 280 -11 102 -27 257 -35 345 -8 88 -21 228 -30 310 -25
233 -34 488 -20 533 7 21 5 22 -58 22 -36 0 -68 -4 -71 -10z"/>
<path d="M2550 2080 c0 -6 7 -10 15 -10 8 0 15 2 15 4 0 2 -7 6 -15 10 -8 3
-15 1 -15 -4z"/>
<path d="M1983 2045 c0 -22 2 -30 4 -17 2 12 2 30 0 40 -3 9 -5 -1 -4 -23z"/>
<path d="M1587 2003 c-8 -13 -30 -133 -25 -138 2 -2 11 29 20 70 14 71 15 85
5 68z"/>
<path d="M1992 1940 c0 -19 2 -27 5 -17 2 9 2 25 0 35 -3 9 -5 1 -5 -18z"/>
<path d="M3602 1945 c0 -16 2 -22 5 -12 2 9 2 23 0 30 -3 6 -5 -1 -5 -18z"/>
<path d="M3621 1954 c0 -11 3 -14 6 -6 3 7 2 16 -1 19 -3 4 -6 -2 -5 -13z"/>
<path d="M3626 1895 c17 -13 17 -14 2 -15 -19 0 -26 -20 -8 -20 6 0 10 -8 10
-17 0 -15 -2 -16 -10 -3 -8 13 -10 12 -10 -2 0 -10 4 -18 8 -18 4 0 8 -26 9
-57 2 -62 55 -319 73 -352 5 -11 9 -24 8 -28 0 -4 2 -21 6 -38 28 -117 38
-166 51 -259 14 -100 13 -114 -5 -224 -11 -64 -24 -133 -29 -152 -23 -82 -41
-180 -46 -249 -3 -41 -8 -86 -11 -100 -4 -17 -3 -22 4 -13 6 9 9 -3 8 -35 0
-71 24 -277 35 -287 12 -13 12 75 -1 108 -24 65 -28 273 -6 335 9 24 16 54 16
66 0 13 18 100 40 194 l41 172 -15 92 c-25 153 -28 170 -33 215 -3 23 -8 42
-12 42 -4 0 -8 8 -9 18 -1 9 -6 53 -11 97 -17 139 -31 229 -40 255 -5 14 -12
49 -15 79 -3 30 -9 57 -14 60 -4 3 -9 33 -10 66 -3 59 -14 85 -35 85 -6 0 -2
-7 9 -15z m34 -155 c0 -5 -5 -10 -11 -10 -5 0 -7 5 -4 10 3 6 8 10 11 10 2 0
4 -4 4 -10z"/>
<path d="M1989 1888 c0 -7 -1 -41 -1 -75 0 -35 -4 -63 -10 -63 -5 0 -8 -28 -7
-62 2 -76 8 -108 20 -108 4 0 8 72 8 160 1 88 -1 160 -4 160 -3 0 -5 -6 -6
-12z"/>
<path d="M1535 1763 c-4 -21 -12 -44 -18 -52 -9 -11 -9 -13 0 -8 6 4 13 1 16
-5 2 -7 7 11 11 41 8 62 2 80 -9 24z"/>
<path d="M3752 1710 c0 -14 2 -19 5 -12 2 6 2 18 0 25 -3 6 -5 1 -5 -13z"/>
<path d="M1850 1654 c0 -36 3 -63 8 -61 4 3 7 -23 7 -56 0 -34 2 -89 4 -122 1
-33 -1 -79 -4 -102 -9 -51 1 -105 16 -82 12 20 11 331 -2 404 -6 33 -11 66
-11 73 -1 6 -5 12 -10 12 -4 0 -8 -30 -8 -66z"/>
<path d="M1801 1624 c0 -11 3 -14 6 -6 3 7 2 16 -1 19 -3 4 -6 -2 -5 -13z"/>
<path d="M4502 1610 c0 -19 2 -27 5 -17 2 9 2 25 0 35 -3 9 -5 1 -5 -18z"/>
<path d="M1517 1528 c-9 -57 -26 -166 -37 -243 -12 -77 -24 -156 -27 -175 -3
-19 -2 -32 2 -28 5 4 12 27 16 50 4 24 16 79 27 123 11 44 26 107 32 140 15
74 23 235 11 235 -4 0 -16 -46 -24 -102z"/>
<path d="M3772 1610 c0 -14 2 -19 5 -12 2 6 2 18 0 25 -3 6 -5 1 -5 -13z"/>
<path d="M1781 1558 c-20 -65 -40 -117 -72 -183 -34 -69 -35 -80 -12 -66 12 6
28 4 55 -10 21 -11 38 -15 38 -9 0 5 11 10 25 10 14 0 25 4 25 9 0 4 -10 6
-23 4 -23 -5 -23 -4 -20 87 2 81 1 91 -14 86 -12 -5 -13 -3 -6 6 10 13 28 108
20 108 -2 0 -10 -19 -16 -42z"/>
<path d="M2529 1566 c-14 -30 20 -501 56 -791 37 -296 54 -448 66 -600 6 -77
13 -143 16 -147 2 -5 14 -8 25 -8 19 0 20 4 14 58 -4 31 -10 102 -12 157 -6
127 -39 451 -59 575 -20 125 -34 253 -29 262 3 4 0 34 -5 65 -6 32 -15 141
-21 243 -6 102 -15 187 -20 188 -6 2 -8 8 -4 13 3 5 0 9 -6 9 -6 0 -15 -11
-21 -24z"/>
<path d="M3782 1560 c0 -14 2 -19 5 -12 2 6 2 18 0 25 -3 6 -5 1 -5 -13z"/>
<path d="M4488 1522 c-9 -20 -20 -57 -23 -82 -4 -25 -13 -76 -20 -115 -18 -93
-29 -259 -15 -227 40 94 83 322 78 414 l-3 47 -17 -37z"/>
<path d="M3791 1514 c0 -11 3 -14 6 -6 3 7 2 16 -1 19 -3 4 -6 -2 -5 -13z"/>
<path d="M3802 1465 c0 -16 2 -22 5 -12 2 9 2 23 0 30 -3 6 -5 -1 -5 -18z"/>
<path d="M4391 1464 c0 -11 3 -14 6 -6 3 7 2 16 -1 19 -3 4 -6 -2 -5 -13z"/>
<path d="M3812 1410 c0 -14 2 -19 5 -12 2 6 2 18 0 25 -3 6 -5 1 -5 -13z"/>
<path d="M2247 1353 c-4 -3 -7 -19 -7 -35 0 -21 4 -27 13 -22 8 5 8 3 -2 -9
-11 -14 -11 -18 3 -23 9 -3 16 -15 16 -25 0 -10 4 -19 9 -19 6 0 8 89 2 133
-1 9 -25 9 -34 0z"/>
<path d="M1430 1316 c0 -8 7 -16 15 -20 9 -3 15 0 15 8 0 8 -7 16 -15 20 -9 3
-15 0 -15 -8z"/>
<path d="M3831 1314 c0 -11 3 -14 6 -6 3 7 2 16 -1 19 -3 4 -6 -2 -5 -13z"/>
<path d="M1433 1235 c0 -33 2 -45 4 -27 2 18 2 45 0 60 -2 15 -4 0 -4 -33z"/>
<path d="M3841 1270 c1 -14 5 -38 9 -55 7 -29 8 -29 9 10 0 22 -4 47 -9 55 -8
12 -9 10 -9 -10z"/>
<path d="M3929 1252 c5 -34 6 -35 9 -8 2 16 0 32 -5 37 -5 5 -7 -7 -4 -29z"/>
<path d="M3942 1190 c0 -14 2 -19 5 -12 2 6 2 18 0 25 -3 6 -5 1 -5 -13z"/>
<path d="M3865 1140 c17 -161 17 -165 -4 -247 -12 -45 -30 -103 -42 -130 -32
-73 -48 -132 -54 -198 -4 -33 -8 -70 -11 -82 -2 -13 0 -23 5 -23 10 0 14 13
41 130 7 30 30 108 51 172 33 100 39 130 38 200 0 46 -7 115 -14 153 -9 41
-12 51 -10 25z"/>
<path d="M3962 1085 c0 -16 2 -22 5 -12 2 9 2 23 0 30 -3 6 -5 -1 -5 -18z"/>
<path d="M3952 1020 c0 -14 2 -19 5 -12 2 6 2 18 0 25 -3 6 -5 1 -5 -13z"/>
<path d="M3931 936 c-7 -32 -11 -60 -8 -62 7 -7 30 93 25 107 -2 7 -10 -14
-17 -45z"/>
<path d="M3720 890 c-7 -34 -13 -74 -14 -89 -1 -16 -4 -27 -7 -25 -7 4 -24
-86 -34 -176 -3 -30 -8 -71 -12 -90 -13 -79 7 -17 31 95 15 66 31 140 37 164
5 24 7 58 4 75 -4 19 -3 26 2 18 6 -7 9 7 10 38 0 27 0 50 -2 50 -1 0 -8 -27
-15 -60z"/>
<path d="M3440 876 c0 -28 -2 -69 -5 -91 l-5 -40 10 39 c6 22 13 42 17 45 3 3
3 -5 0 -19 -7 -28 -37 -274 -37 -302 0 -39 17 -15 28 40 35 167 42 214 42 288
0 79 -1 82 -25 86 -24 5 -25 3 -25 -46z"/>
<path d="M3590 910 c-11 -8 -9 -9 13 -8 15 1 27 6 27 10 0 11 -22 10 -40 -2z"/>
<path d="M3868 717 c-27 -78 -48 -149 -48 -157 0 -8 23 52 50 134 28 82 49
153 48 157 -2 5 -24 -56 -50 -134z"/>
<path d="M3300 830 c-24 -8 -24 -8 7 -9 17 -1 35 4 38 9 7 11 -9 11 -45 0z"/>
<path d="M3275 790 c-8 -13 5 -13 25 0 13 8 13 10 -2 10 -9 0 -20 -4 -23 -10z"/>
<path d="M3352 775 c0 -16 2 -22 5 -12 2 9 2 23 0 30 -3 6 -5 -1 -5 -18z"/>
<path d="M3353 645 c0 -44 2 -61 4 -37 2 23 2 59 0 80 -2 20 -4 1 -4 -43z"/>
<path d="M3251 674 c0 -11 3 -14 6 -6 3 7 2 16 -1 19 -3 4 -6 -2 -5 -13z"/>
<path d="M3251 634 c0 -11 3 -14 6 -6 3 7 2 16 -1 19 -3 4 -6 -2 -5 -13z"/>
<path d="M3237 583 c-3 -5 -1 -17 4 -28 6 -17 7 -16 6 8 -1 28 -3 32 -10 20z"/>
<path d="M2150 559 c0 -7 8 -18 18 -25 10 -8 12 -13 5 -14 -18 0 -16 -20 2
-20 10 0 15 11 15 35 0 28 -4 35 -20 35 -11 0 -20 -5 -20 -11z"/>
<path d="M3812 515 c0 -16 2 -22 5 -12 2 9 2 23 0 30 -3 6 -5 -1 -5 -18z"/>
<path d="M3241 514 c0 -11 3 -14 6 -6 3 7 2 16 -1 19 -3 4 -6 -2 -5 -13z"/>
<path d="M4705 470 c-38 -27 -88 -61 -110 -76 -108 -71 -115 -77 -117 -103 -3
-50 3 -65 34 -93 31 -27 55 -31 117 -19 11 3 -57 59 -92 76 -52 26 -59 45 -17
45 33 0 65 -21 130 -85 31 -30 63 -41 103 -36 14 2 -50 51 -81 62 -16 5 -29
15 -29 22 0 10 10 11 45 2 38 -10 52 -21 84 -66 21 -30 42 -59 48 -66 16 -19
12 -25 -10 -13 -15 8 -20 8 -20 -1 0 -7 -4 -8 -12 -2 -7 5 -26 10 -43 12 -16
1 -35 9 -41 17 -15 19 -81 18 -91 -1 -11 -18 -93 -33 -93 -16 0 7 5 9 10 6 6
-3 10 -2 10 4 0 6 -9 15 -20 21 -16 9 -22 8 -27 -6 -3 -9 -1 -19 5 -23 7 -4 8
-12 2 -21 -13 -21 -12 -90 1 -90 6 0 9 7 5 15 -3 9 0 15 9 15 8 0 15 -7 15
-15 0 -11 11 -15 41 -15 51 0 42 15 -25 45 -25 11 -46 22 -46 25 0 3 47 4 105
2 79 -3 105 -7 105 -17 0 -7 12 -16 26 -19 19 -5 23 -10 16 -19 -8 -9 0 -13
29 -15 l39 -2 -5 47 c-3 28 -1 43 4 37 5 -5 11 -25 13 -44 3 -35 3 -35 56 -38
l52 -3 0 36 c0 62 -28 141 -63 175 -57 55 -118 88 -177 95 -120 13 -121 14
-102 33 44 44 134 97 183 107 30 6 32 5 19 -8 -8 -9 -31 -20 -50 -25 l-35 -10
31 -1 c31 -1 49 9 74 43 14 18 13 18 -24 14 -38 -4 -38 -4 -17 13 21 18 27 29
14 29 -5 0 -39 -23 -78 -50z"/>
<path d="M3331 494 c0 -11 3 -14 6 -6 3 7 2 16 -1 19 -3 4 -6 -2 -5 -13z"/>
<path d="M4429 440 c6 -58 4 -292 -4 -372 -4 -43 -2 -48 16 -48 20 0 20 4 15
201 -3 110 -9 206 -15 212 -5 7 -11 23 -14 37 -2 14 -2 0 2 -30z"/>
<path d="M3414 464 c3 -8 1 -16 -4 -19 -5 -3 -9 -33 -8 -66 l2 -60 14 33 c21
46 24 125 5 125 -8 0 -12 -6 -9 -13z"/>
<path d="M3821 464 c0 -11 3 -14 6 -6 3 7 2 16 -1 19 -3 4 -6 -2 -5 -13z"/>
<path d="M3891 464 c0 -11 3 -14 6 -6 3 7 2 16 -1 19 -3 4 -6 -2 -5 -13z"/>
<path d="M1265 454 c-6 -8 -18 -16 -27 -18 -29 -4 -32 -15 -7 -21 13 -3 42 1
64 9 34 12 37 16 21 22 -19 7 -19 8 0 15 15 6 13 8 -11 8 -17 1 -34 -6 -40
-15z"/>
<path d="M4822 423 c-29 -28 -52 -54 -52 -59 0 -5 21 -28 47 -51 l48 -42 13
81 c9 50 10 89 5 101 -8 18 -13 16 -61 -30z"/>
<path d="M1381 422 c-1 -41 -45 -90 -65 -73 -14 11 -82 8 -95 -4 -3 -4 12 -6
34 -5 54 3 62 1 50 -8 -7 -4 -4 -19 8 -42 l19 -35 -6 31 c-4 24 0 36 18 53 30
28 40 27 21 -3 -15 -23 -15 -26 3 -44 11 -11 23 -18 26 -15 3 4 6 1 6 -5 0 -7
10 -12 22 -12 20 0 21 1 3 20 -11 12 -13 20 -6 20 7 0 9 5 4 13 -4 6 -15 41
-25 77 -13 51 -16 58 -17 32z"/>
<path d="M2180 425 c0 -9 6 -12 15 -9 8 4 12 10 9 15 -8 14 -24 10 -24 -6z"/>
<path d="M3542 415 c0 -16 2 -22 5 -12 2 9 2 23 0 30 -3 6 -5 -1 -5 -18z"/>
<path d="M3907 405 c3 -22 7 -42 9 -44 8 -9 2 45 -6 64 -7 14 -8 8 -3 -20z"/>
<path d="M3210 392 c0 -5 7 -9 15 -9 8 0 15 4 15 9 0 4 -7 8 -15 8 -8 0 -15
-4 -15 -8z"/>
<path d="M3280 390 c-13 -9 -13 -10 0 -9 8 1 26 5 40 9 l25 8 -25 1 c-14 0
-32 -4 -40 -9z"/>
<path d="M3773 350 c0 -30 2 -43 4 -27 2 15 2 39 0 55 -2 15 -4 2 -4 -28z"/>
<path d="M3242 369 c-7 -11 -16 -17 -21 -15 -19 12 -23 -184 -5 -302 4 -26 9
-32 30 -32 l26 0 -8 73 c-10 94 -11 110 -14 182 -1 33 -4 51 -7 40 -9 -36 -23
-41 -23 -7 0 21 5 32 14 32 7 0 16 10 19 22 8 29 4 32 -11 7z"/>
<path d="M3841 374 c0 -11 3 -14 6 -6 3 7 2 16 -1 19 -3 4 -6 -2 -5 -13z"/>
<path d="M3851 334 c0 -11 3 -14 6 -6 3 7 2 16 -1 19 -3 4 -6 -2 -5 -13z"/>
<path d="M1240 310 c0 -5 5 -10 10 -10 6 0 10 5 10 10 0 6 -4 10 -10 10 -5 0
-10 -4 -10 -10z"/>
<path d="M3862 295 c0 -11 4 -31 8 -45 6 -20 8 -21 8 -5 0 11 -4 31 -8 45 -6
20 -8 21 -8 5z"/>
<path d="M3351 274 c0 -11 3 -14 6 -6 3 7 2 16 -1 19 -3 4 -6 -2 -5 -13z"/>
<path d="M3782 260 c0 -19 2 -27 5 -17 2 9 2 25 0 35 -3 9 -5 1 -5 -18z"/>
<path d="M1385 241 c-24 -5 -30 -12 -32 -33 -2 -29 -1 -29 85 -28 8 0 11 38 4
58 -4 13 -9 13 -57 3z"/>
<path d="M3941 234 c0 -11 3 -14 6 -6 3 7 2 16 -1 19 -3 4 -6 -2 -5 -13z"/>
<path d="M3343 205 c0 -22 2 -30 4 -17 2 12 2 30 0 40 -3 9 -5 -1 -4 -23z"/>
<path d="M3370 176 c0 -36 -4 -55 -10 -51 -6 4 -10 -7 -10 -27 0 -48 10 -78
26 -78 12 0 13 19 8 103 -8 114 -14 140 -14 53z"/>
<path d="M3795 174 c12 -94 27 -154 36 -154 12 0 1 90 -12 105 -5 5 -9 26 -9
46 0 21 -5 41 -11 44 -7 5 -9 -8 -4 -41z"/>
<path d="M3882 205 c0 -11 4 -33 8 -50 7 -27 8 -27 8 -5 0 14 -4 36 -8 50 -6
20 -8 21 -8 5z"/>
<path d="M1455 160 c3 -5 8 -10 11 -10 2 0 4 5 4 10 0 6 -5 10 -11 10 -5 0 -7
-4 -4 -10z"/>
<path d="M3961 154 c0 -11 3 -14 6 -6 3 7 2 16 -1 19 -3 4 -6 -2 -5 -13z"/>
<path d="M1456 121 c-3 -5 1 -11 9 -15 8 -3 15 -1 15 4 0 13 -18 22 -24 11z"/>
<path d="M3902 110 c0 -8 4 -26 8 -40 6 -20 8 -21 8 -5 0 11 -3 29 -8 40 -5
12 -8 14 -8 5z"/>
<path d="M1046 50 c-14 -29 -11 -37 9 -22 10 6 18 52 10 52 -2 0 -10 -13 -19
-30z"/>
<path d="M4613 37 c2 -7 28 -13 58 -15 67 -4 56 14 -14 21 -34 4 -47 2 -44 -6z"/>
<path d="M1423 23 c9 -2 23 -2 30 0 6 3 -1 5 -18 5 -16 0 -22 -2 -12 -5z"/>
</g>
</svg>
